<?xml version="1.0" encoding="UTF-8" standalone="no"?>
<!-- Created with Inkscape (http://www.inkscape.org/) -->

<svg
   xmlns:dc="http://purl.org/dc/elements/1.1/"
   xmlns:cc="http://creativecommons.org/ns#"
   xmlns:rdf="http://www.w3.org/1999/02/22-rdf-syntax-ns#"
   xmlns:svg="http://www.w3.org/2000/svg"
   xmlns="http://www.w3.org/2000/svg"
   xmlns:sodipodi="http://sodipodi.sourceforge.net/DTD/sodipodi-0.dtd"
   xmlns:inkscape="http://www.inkscape.org/namespaces/inkscape"
   width="105mm"
   height="148mm"
   viewBox="0 0 105 148"
   version="1.1"
   id="svg8"
   inkscape:version="0.92.3 (2405546, 2018-03-11)"
   sodipodi:docname="cover-back-cs.svg">
  <defs
     id="defs2">
    <inkscape:path-effect
       is_visible="true"
       id="path-effect4364"
       effect="spiro" />
    <inkscape:path-effect
       effect="spiro"
       id="path-effect4885"
       is_visible="true" />
    <inkscape:path-effect
       is_visible="true"
       id="path-effect4809"
       effect="spiro" />
    <inkscape:path-effect
       is_visible="true"
       id="path-effect4390"
       effect="spiro" />
    <inkscape:path-effect
       effect="spiro"
       id="path-effect4374"
       is_visible="true" />
    <inkscape:path-effect
       is_visible="true"
       id="path-effect4333"
       effect="spiro" />
    <inkscape:path-effect
       effect="spiro"
       id="path-effect4327"
       is_visible="true" />
    <inkscape:path-effect
       effect="spiro"
       id="path-effect4323"
       is_visible="true" />
    <inkscape:path-effect
       is_visible="true"
       id="path-effect4390-6"
       effect="spiro" />
    <inkscape:path-effect
       is_visible="true"
       id="path-effect4390-5"
       effect="spiro" />
    <inkscape:path-effect
       is_visible="true"
       id="path-effect4390-56"
       effect="spiro" />
    <inkscape:path-effect
       is_visible="true"
       id="path-effect4390-56-9"
       effect="spiro" />
    <inkscape:path-effect
       is_visible="true"
       id="path-effect4390-5-2"
       effect="spiro" />
    <inkscape:path-effect
       effect="spiro"
       id="path-effect4374-0"
       is_visible="true" />
    <inkscape:path-effect
       effect="spiro"
       id="path-effect4374-3"
       is_visible="true" />
    <inkscape:path-effect
       effect="spiro"
       id="path-effect4374-06"
       is_visible="true" />
    <inkscape:path-effect
       effect="spiro"
       id="path-effect4374-6"
       is_visible="true" />
    <inkscape:path-effect
       effect="spiro"
       id="path-effect4374-8"
       is_visible="true" />
    <inkscape:path-effect
       effect="spiro"
       id="path-effect4374-9"
       is_visible="true" />
    <inkscape:path-effect
       effect="spiro"
       id="path-effect4374-2"
       is_visible="true" />
    <inkscape:path-effect
       effect="spiro"
       id="path-effect4374-7"
       is_visible="true" />
    <inkscape:path-effect
       effect="spiro"
       id="path-effect4374-6-9"
       is_visible="true" />
    <inkscape:path-effect
       effect="spiro"
       id="path-effect4374-6-2"
       is_visible="true" />
    <inkscape:path-effect
       effect="spiro"
       id="path-effect4374-6-97"
       is_visible="true" />
    <inkscape:path-effect
       effect="spiro"
       id="path-effect4374-8-6"
       is_visible="true" />
    <inkscape:path-effect
       effect="spiro"
       id="path-effect4374-6-29"
       is_visible="true" />
    <inkscape:path-effect
       effect="spiro"
       id="path-effect4374-94"
       is_visible="true" />
    <inkscape:path-effect
       effect="spiro"
       id="path-effect4374-0-7"
       is_visible="true" />
    <inkscape:path-effect
       effect="spiro"
       id="path-effect4374-3-8"
       is_visible="true" />
    <inkscape:path-effect
       effect="spiro"
       id="path-effect4374-06-4"
       is_visible="true" />
    <inkscape:path-effect
       effect="spiro"
       id="path-effect4374-6-5"
       is_visible="true" />
    <inkscape:path-effect
       effect="spiro"
       id="path-effect4374-8-0"
       is_visible="true" />
    <inkscape:path-effect
       effect="spiro"
       id="path-effect4374-2-3"
       is_visible="true" />
    <inkscape:path-effect
       effect="spiro"
       id="path-effect4374-7-6"
       is_visible="true" />
    <inkscape:path-effect
       effect="spiro"
       id="path-effect4374-6-9-1"
       is_visible="true" />
    <inkscape:path-effect
       effect="spiro"
       id="path-effect4374-6-2-0"
       is_visible="true" />
    <inkscape:path-effect
       effect="spiro"
       id="path-effect4374-6-97-6"
       is_visible="true" />
    <inkscape:path-effect
       effect="spiro"
       id="path-effect4374-8-6-3"
       is_visible="true" />
    <inkscape:path-effect
       effect="spiro"
       id="path-effect4374-6-29-2"
       is_visible="true" />
    <inkscape:path-effect
       effect="spiro"
       id="path-effect4374-4"
       is_visible="true" />
    <inkscape:path-effect
       effect="spiro"
       id="path-effect4374-0-4"
       is_visible="true" />
    <inkscape:path-effect
       effect="spiro"
       id="path-effect4374-3-3"
       is_visible="true" />
    <inkscape:path-effect
       effect="spiro"
       id="path-effect4374-06-0"
       is_visible="true" />
    <inkscape:path-effect
       effect="spiro"
       id="path-effect4374-6-7"
       is_visible="true" />
    <inkscape:path-effect
       effect="spiro"
       id="path-effect4374-8-8"
       is_visible="true" />
    <inkscape:path-effect
       is_visible="true"
       id="path-effect4809-6"
       effect="spiro" />
    <clipPath
       id="clipPath898"
       clipPathUnits="userSpaceOnUse">
      <path
         inkscape:connector-curvature="0"
         id="path896"
         d="M 0,77.453 H 100.528 V 0 H 0 Z" />
    </clipPath>
    <clipPath
       id="clipPath951"
       clipPathUnits="userSpaceOnUse">
      <path
         inkscape:connector-curvature="0"
         id="path949"
         d="M 0,82.67 H 107.358 V 0 H 0 Z" />
    </clipPath>
    <inkscape:path-effect
       effect="spiro"
       id="path-effect4374-67"
       is_visible="true" />
    <inkscape:path-effect
       effect="spiro"
       id="path-effect4374-0-5"
       is_visible="true" />
    <inkscape:path-effect
       effect="spiro"
       id="path-effect4374-3-3-1"
       is_visible="true" />
    <inkscape:path-effect
       effect="spiro"
       id="path-effect4374-06-5"
       is_visible="true" />
    <inkscape:path-effect
       effect="spiro"
       id="path-effect4374-6-6"
       is_visible="true" />
    <inkscape:path-effect
       effect="spiro"
       id="path-effect4374-8-2"
       is_visible="true" />
    <inkscape:path-effect
       is_visible="true"
       id="path-effect4809-9"
       effect="spiro" />
    <clipPath
       id="clipPath1037"
       clipPathUnits="userSpaceOnUse">
      <path
         inkscape:connector-curvature="0"
         id="path1035"
         d="M 0,107.643 H 311.249 V 0 H 0 Z" />
    </clipPath>
    <clipPath
       id="clipPath912"
       clipPathUnits="userSpaceOnUse">
      <path
         inkscape:connector-curvature="0"
         id="path910"
         d="M 0,52.716 H 180 V 0 H 0 Z" />
    </clipPath>
    <clipPath
       id="clipPath984"
       clipPathUnits="userSpaceOnUse">
      <path
         inkscape:connector-curvature="0"
         id="path982"
         d="M 0,82.67 H 180 V 0 H 0 Z" />
    </clipPath>
    <clipPath
       id="clipPath971"
       clipPathUnits="userSpaceOnUse">
      <path
         inkscape:connector-curvature="0"
         id="path969"
         d="M 0,82.67 H 187.801 V 0 H 0 Z" />
    </clipPath>
    <clipPath
       id="clipPath1682"
       clipPathUnits="userSpaceOnUse">
      <path
         inkscape:connector-curvature="0"
         id="path1680"
         d="M 0,107.643 H 249 V 0 H 0 Z" />
    </clipPath>
  </defs>
  <sodipodi:namedview
     id="base"
     pagecolor="#ffffff"
     bordercolor="#666666"
     borderopacity="1.0"
     inkscape:pageopacity="0.0"
     inkscape:pageshadow="2"
     inkscape:zoom="2.4296244"
     inkscape:cx="154.16007"
     inkscape:cy="138.81704"
     inkscape:document-units="mm"
     inkscape:current-layer="layer1"
     inkscape:document-rotation="0"
     showgrid="false"
     showguides="true"
     inkscape:guide-bbox="true"
     inkscape:snap-page="true"
     inkscape:snap-bbox="true"
     inkscape:bbox-paths="false"
     inkscape:bbox-nodes="false"
     inkscape:snap-bbox-edge-midpoints="false"
     inkscape:snap-bbox-midpoints="false"
     inkscape:object-paths="true"
     inkscape:snap-intersection-paths="true"
     inkscape:snap-smooth-nodes="true"
     inkscape:snap-midpoints="true"
     inkscape:snap-object-midpoints="true"
     inkscape:snap-center="true"
     inkscape:window-width="1920"
     inkscape:window-height="1016"
     inkscape:window-x="0"
     inkscape:window-y="27"
     inkscape:window-maximized="1" />
  <metadata
     id="metadata5">
    <rdf:RDF>
      <cc:Work
         rdf:about="">
        <dc:format>image/svg+xml</dc:format>
        <dc:type
           rdf:resource="http://purl.org/dc/dcmitype/StillImage" />
        <dc:title />
      </cc:Work>
    </rdf:RDF>
  </metadata>
  <g
     inkscape:label="Layer 1"
     inkscape:groupmode="layer"
     id="layer1"
     transform="translate(0,-149)">
    <flowRoot
       xml:space="preserve"
       id="flowRoot6550"
       style="fill:none;stroke:black;stroke-opacity:1;stroke-width:1px;stroke-linejoin:miter;stroke-linecap:butt;font-family:muni;font-size:26.66666667px;line-height:100%;letter-spacing:0px;word-spacing:0px;-inkscape-font-specification:'muni Bold';text-anchor:start;text-align:start;font-weight:bold;font-style:normal;font-stretch:normal;font-variant:normal"><flowRegion
         id="flowRegion6552"><rect
           id="rect6554"
           width="223.90292"
           height="193.44554"
           x="-80.670906"
           y="-37.429985" /></flowRegion><flowPara
         id="flowPara6556" /></flowRoot>    <rect
       y="148.99998"
       x="-6.9038088e-06"
       height="148"
       width="104.99999"
       id="rect6440"
       style="opacity:1;vector-effect:none;fill:#ffe333;fill-opacity:1;stroke:none;stroke-width:1;stroke-linecap:butt;stroke-linejoin:miter;stroke-miterlimit:4;stroke-dasharray:none;stroke-dashoffset:0;stroke-opacity:1" />
    <path
       inkscape:connector-curvature="0"
       id="path6442"
       style="fill:none;stroke:#f0cf00;stroke-width:0.26458299px;stroke-opacity:1"
       d="M 0.06614,149.06614 V 297.06615 M 2.71197,149.06614 V 297.06615 M 5.35781,149.06614 V 297.06615 M 8.003641,149.06614 V 297.06615 M 10.64947,149.06614 V 297.06615 M 13.29531,149.06614 V 297.06615 M 15.94114,149.06614 V 297.06615 M 18.58697,149.06614 V 297.06615 M 21.23281,149.06614 V 297.06615 M 23.87864,149.06614 V 297.06615 M 26.524469,149.06614 V 297.06615 M 29.17031,149.06614 V 297.06615 M 31.816141,149.06614 V 297.06615 M 34.461972,149.06614 V 297.06615 M 37.10781,149.06614 V 297.06615 M 39.753641,149.06614 V 297.06615 M 42.399472,149.06614 V 297.06615 M 45.04531,149.06614 V 297.06615 M 47.691141,149.06614 V 297.06615 M 50.336972,149.06614 V 297.06615 M 52.98281,149.06614 V 297.06615 M 55.628641,149.06614 V 297.06615 M 58.274472,149.06614 V 297.06615 M 60.92031,149.06614 V 297.06615 M 63.566141,149.06614 V 297.06615 M 66.211972,149.06614 V 297.06615 M 68.85781,149.06614 V 297.06615 M 71.503641,149.06614 V 297.06615 M 74.149472,149.06614 V 297.06615 M 76.79531,149.06614 V 297.06615 M 79.441141,149.06614 V 297.06615 M 82.086972,149.06614 V 297.06615 M 84.73281,149.06614 V 297.06615 M 87.378641,149.06614 V 297.06615 M 90.024472,149.06614 V 297.06615 M 92.67031,149.06614 v 148.00001 m 2.645831,-148.00001 v 148.00001 m 2.645831,-148.00001 v 148.00001 m 2.645838,-148.00001 v 148.00001 m 2.64585,-148.00001 V 297.06615 M 0.06614,149.06614 H 105.06615 M 0.06614,151.71197 H 105.06615 M 0.06614,154.35781 H 105.06615 M 0.06614,157.00364 H 105.06615 M 0.06614,159.64947 H 105.06615 M 0.06614,162.29532 H 105.06615 M 0.06614,164.94115 H 105.06615 M 0.06614,167.58698 H 105.06615 M 0.06614,170.23282 H 105.06615 M 0.06614,172.87865 H 105.06615 M 0.06614,175.52446 H 105.06615 M 0.06614,178.17032 H 105.06615 M 0.06614,180.81615 H 105.06615 M 0.06614,183.46197 H 105.06615 M 0.06614,186.10782 H 105.06615 M 0.06614,188.75365 H 105.06615 M 0.06614,191.39947 H 105.06615 M 0.06614,194.04532 H 105.06615 M 0.06614,196.69115 H 105.06615 M 0.06614,199.33697 H 105.06615 M 0.06614,201.98282 H 105.06615 M 0.06614,204.62865 H 105.06615 M 0.06614,207.27447 H 105.06615 M 0.06614,209.92032 H 105.06615 M 0.06614,212.56615 H 105.06615 M 0.06614,215.21197 H 105.06615 M 0.06614,217.85782 H 105.06615 M 0.06614,220.50365 H 105.06615 M 0.06614,223.14947 H 105.06615 M 0.06614,225.79532 H 105.06615 M 0.06614,228.44115 H 105.06615 M 0.06614,231.08697 H 105.06615 M 0.06614,233.73282 H 105.06615 M 0.06614,236.37865 H 105.06615 M 0.06614,239.02448 H 105.06615 M 0.06614,241.67032 H 105.06615 M 0.06614,244.31615 H 105.06615 M 0.06614,246.96198 H 105.06615 M 0.06614,249.60781 H 105.06615 M 0.06614,252.25365 H 105.06615 M 0.06614,254.89948 H 105.06615 M 0.06614,257.54531 H 105.06615 M 0.06614,260.19115 H 105.06615 M 0.06614,262.83698 H 105.06615 M 0.06614,265.48281 H 105.06615 M 0.06614,268.12865 H 105.06615 M 0.06614,270.77448 H 105.06615 M 0.06614,273.42031 H 105.06615 M 0.06614,276.06615 H 105.06615 M 0.06614,278.71198 H 105.06615 M 0.06614,281.35781 H 105.06615 M 0.06614,284.00365 H 105.06615 M 0.06614,286.64948 H 105.06615 M 0.06614,289.29531 H 105.06615 M 0.06614,291.94115 H 105.06615 M 0.06614,294.58698 h 105.00001" />
    <path
       inkscape:connector-curvature="0"
       id="path6444"
       style="fill:none;stroke:#f0cf00;stroke-width:0.79374999px;stroke-opacity:1"
       d="M 0.19843,149.19843 V 297.19844 M 13.4276,149.19843 V 297.19844 M 26.656771,149.19843 V 297.19844 M 39.88593,149.19843 V 297.19844 M 53.115099,149.19843 V 297.19844 M 66.344271,149.19843 V 297.19844 M 79.57343,149.19843 V 297.19844 M 92.802602,149.19843 V 297.19844 M 0.19843,149.19843 H 105.19844 M 0.19843,162.4276 H 105.19844 M 0.19843,175.65677 H 105.19844 M 0.19843,188.88593 H 105.19844 M 0.19843,202.11509 H 105.19844 M 0.19843,215.34427 H 105.19844 M 0.19843,228.57343 H 105.19844 M 0.19843,241.8026 H 105.19844 M 0.19843,255.03177 H 105.19844 M 0.19843,268.26093 H 105.19844 M 0.19843,281.4901 H 105.19844 M 0.19843,294.71927 h 105.00001" />
    <text
       xml:space="preserve"
       style="font-style:normal;font-variant:normal;font-weight:bold;font-stretch:normal;font-size:2.96179605px;line-height:100%;font-family:'Open Sans';-inkscape-font-specification:'Open Sans Bold';text-align:start;letter-spacing:0px;word-spacing:0px;text-anchor:start;fill:#000000;fill-opacity:1;stroke:#000000;stroke-width:0.11106735px;stroke-linecap:butt;stroke-linejoin:miter;stroke-opacity:1"
       x="5.7303243"
       y="277.07834"
       id="text1176"><tspan
         sodipodi:role="line"
         id="tspan1174"
         x="5.7303243"
         y="277.07834"
         style="font-style:normal;font-variant:normal;font-weight:normal;font-stretch:normal;font-family:'Neue Haas Unica Pro';-inkscape-font-specification:'Neue Haas Unica Pro';fill:#000000;fill-opacity:1;stroke:none;stroke-width:0.11106735px">ve spolupráci s</tspan></text>
    <g
       id="g1662"
       transform="matrix(0.65594246,0,0,0.65594246,16.782579,79.132501)">
      <path
         inkscape:connector-curvature="0"
         id="path963"
         style="fill:#000000;fill-opacity:1;fill-rule:nonzero;stroke:none;stroke-width:0.35277778"
         d="m -12.845624,304.28994 h 1.241777 v 7.90152 h -1.241777 z m -0.462845,0 h 0.417689 l -0.767644,7.90187 h -0.417689 z m -1.998133,0 h 0.418042 l 0.767291,7.90187 h -0.417689 z m -1.275292,0 h 1.230489 v 7.90152 h -1.230489 z" />
      <path
         d="m -6.9413945,304.29005 v 6.0392 c 0,0.42898 0.3838222,0.73378 0.7450667,0.73378 0.3612444,0 0.7450666,-0.3048 0.7450666,-0.73378 v -6.0392 h 1.241425 v 6.08436 c 0,1.0608 -0.9595556,1.88489 -1.9864916,1.88489 -1.0272889,0 -1.9868445,-0.82409 -1.9868445,-1.88489 v -6.08436 z"
         style="fill:#000000;fill-opacity:1;fill-rule:nonzero;stroke:none;stroke-width:0.35277778"
         id="path975"
         inkscape:connector-curvature="0" />
      <path
         inkscape:connector-curvature="0"
         id="path977"
         style="fill:#000000;fill-opacity:1;fill-rule:nonzero;stroke:none;stroke-width:0.35277778"
         d="M 3.7941974,312.19181 H 2.5524197 v -7.90152 h 1.2417777 z m -2.4609777,-7.90187 1.1740444,7.90187 H 2.0782864 l -1.17404445,-7.90187 z m -0.47413331,7.90187 h -1.24177775 v -7.90152 h 1.24177775 z" />
      <path
         d="m 8.9757973,311.75144 v -7.02098 H 7.9146418 v -0.44027 h 3.3753772 v 0.44027 h -1.072444 v 7.02098 h 1.072444 v 0.44027 H 7.9146418 v -0.44027 z"
         style="fill:#000000;fill-opacity:1;fill-rule:nonzero;stroke:none;stroke-width:0.35277778"
         id="path981"
         inkscape:connector-curvature="0" />
      <path
         d="m -15.9724,321.66329 v -4.2672 c 0,-1.08338 0.880533,-1.88489 1.952978,-1.88489 1.08338,0 1.952625,0.80151 1.952625,1.88489 v 0.29351 h -0.6096 v -0.28187 c 0,-0.73413 -0.643114,-1.30951 -1.343025,-1.30951 -0.722489,0 -1.343378,0.57538 -1.343378,1.30951 v 4.24427 c 0,0.73378 0.620889,1.30951 1.343378,1.30951 0.699911,0 1.343025,-0.57573 1.343025,-1.30951 v -0.26 h 0.6096 v 0.27129 c 0,1.1176 -0.869245,1.88524 -1.952625,1.88524 -1.072445,0 -1.952978,-0.76764 -1.952978,-1.88524"
         style="fill:#000000;fill-opacity:1;fill-rule:nonzero;stroke:none;stroke-width:0.35277778"
         id="path985"
         inkscape:connector-curvature="0" />
      <path
         d="m -7.8671187,321.4149 v 0.23707 c 0,0.73377 0.5870222,1.30951 1.3095111,1.30951 0.6886222,0 1.2982222,-0.57574 1.2982222,-1.30951 v -6.07307 h 0.6096 v 6.08436 c 0,1.06115 -0.8805334,1.88524 -1.9078222,1.88524 -1.0272889,0 -1.9191111,-0.82409 -1.9191111,-1.88524 v -0.24836 z"
         style="fill:#000000;fill-opacity:1;fill-rule:nonzero;stroke:none;stroke-width:0.35277778"
         id="path989"
         inkscape:connector-curvature="0" />
      <path
         d="m 4.0084747,315.57894 -1.6929805,7.90152 H 1.7168303 l 1.6594666,-7.90152 z m -3.97333602,0 1.63653612,7.90152 H 1.0737164 l -1.68204438,-7.90152 z"
         style="fill:#000000;fill-opacity:1;fill-rule:nonzero;stroke:none;stroke-width:0.35277778"
         id="path993"
         inkscape:connector-curvature="0" />
      <path
         d="m 18.911783,305.41626 h -0.678744 c -0.04128,-0.38065 -0.293512,-0.60995 -0.674159,-0.60995 -0.4953,0 -0.797983,0.42192 -0.797983,1.10984 0,0.6925 0.298097,1.10983 0.784225,1.10983 0.385233,0 0.637469,-0.22471 0.687917,-0.62371 h 0.692502 c -0.0642,0.77506 -0.582436,1.21991 -1.380419,1.21991 -0.917222,0 -1.481314,-0.64664 -1.481314,-1.70603 0,-1.05481 0.568678,-1.70604 1.495072,-1.70604 0.807156,0 1.3208,0.4953 1.352903,1.20615"
         style="fill:#000000;fill-opacity:1;fill-rule:nonzero;stroke:none;stroke-width:0.35277778"
         id="path997"
         inkscape:connector-curvature="0" />
      <path
         d="m 19.916036,306.11334 h 1.018117 c -0.04127,-0.35313 -0.252236,-0.51364 -0.509059,-0.51364 -0.261408,0 -0.458611,0.16051 -0.509058,0.51364 m 0.972256,0.72919 h 0.655813 c -0.09172,0.42651 -0.4953,0.77964 -1.114425,0.77964 -0.733777,0 -1.160286,-0.51364 -1.160286,-1.25659 0,-0.68792 0.426509,-1.21991 1.1557,-1.21991 0.536575,0 0.930981,0.30268 1.077736,0.77505 0.05045,0.16052 0.07338,0.33938 0.07338,0.5962 h -1.67393 c 0.01834,0.48154 0.252236,0.65123 0.527402,0.65123 0.256823,0 0.426509,-0.13759 0.458612,-0.32562"
         style="fill:#000000;fill-opacity:1;fill-rule:nonzero;stroke:none;stroke-width:0.35277778"
         id="path1001"
         inkscape:connector-curvature="0" />
      <path
         d="m 24.199675,306.118 v 1.43087 h -0.642056 v -1.36666 c 0,-0.35313 -0.155927,-0.51365 -0.408516,-0.51365 -0.265642,0 -0.458259,0.21096 -0.458259,0.63288 v 1.24743 h -0.642408 v -2.32975 h 0.600781 v 0.29351 h 0.0095 c 0.151341,-0.20637 0.385233,-0.34854 0.68333,-0.34854 0.522817,0 0.857603,0.32103 0.857603,0.95391"
         style="fill:#000000;fill-opacity:1;fill-rule:nonzero;stroke:none;stroke-width:0.35277778"
         id="path1005"
         inkscape:connector-curvature="0" />
      <path
         d="m 26.011118,307.0444 v 0.49071 c -0.08714,0.0275 -0.229306,0.0459 -0.339372,0.0459 -0.536575,0 -0.770467,-0.21554 -0.770467,-0.7567 v -1.12819 h -0.376061 v -0.47695 h 0.376061 v -0.60537 h 0.642056 v 0.60537 h 0.444852 v 0.47695 h -0.444852 v 1.01353 c 0,0.25683 0.08255,0.35772 0.302683,0.35772 0.05962,0 0.123825,-0.009 0.1651,-0.0229"
         style="fill:#000000;fill-opacity:1;fill-rule:nonzero;stroke:none;stroke-width:0.35277778"
         id="path1009"
         inkscape:connector-curvature="0" />
      <path
         d="m 27.886626,305.20988 v 0.55492 c -0.07338,-0.0138 -0.137583,-0.0229 -0.201789,-0.0229 -0.394405,0 -0.605367,0.24765 -0.605367,0.70626 v 1.10067 h -0.642055 v -2.32975 h 0.591608 v 0.3302 h 0.0092 c 0.155928,-0.25223 0.362303,-0.36689 0.63747,-0.36689 0.06421,0 0.146755,0.009 0.210961,0.0275"
         style="fill:#000000;fill-opacity:1;fill-rule:nonzero;stroke:none;stroke-width:0.35277778"
         id="path1013"
         inkscape:connector-curvature="0" />
      <path
         d="m 28.212169,306.64992 v -1.43087 h 0.642056 v 1.36666 c 0,0.35313 0.155927,0.51365 0.408516,0.51365 0.265642,0 0.458259,-0.21096 0.458259,-0.63288 v -1.24743 h 0.642408 v 2.32975 h -0.600781 v -0.29351 h -0.0095 c -0.151341,0.20637 -0.385233,0.34854 -0.68333,0.34854 -0.522817,0 -0.857603,-0.32103 -0.857603,-0.95391"
         style="fill:#000000;fill-opacity:1;fill-rule:nonzero;stroke:none;stroke-width:0.35277778"
         id="path1017"
         inkscape:connector-curvature="0" />
      <path
         d="m 34.499975,306.118 v 1.43087 h -0.642056 v -1.36666 c 0,-0.35313 -0.142169,-0.51365 -0.367241,-0.51365 -0.275167,0 -0.426156,0.24307 -0.426156,0.68333 v 1.19698 h -0.642408 v -1.40794 c 0,-0.2981 -0.128058,-0.47237 -0.366889,-0.47237 -0.279753,0 -0.426508,0.24765 -0.426508,0.68333 v 1.19698 h -0.641703 v -2.32975 h 0.605014 v 0.266 h 0.0092 c 0.169686,-0.22014 0.366889,-0.32103 0.646642,-0.32103 0.325966,0 0.564091,0.13758 0.692855,0.39899 0.174272,-0.24765 0.384881,-0.39899 0.742597,-0.39899 0.500592,0 0.816681,0.32103 0.816681,0.95391"
         style="fill:#000000;fill-opacity:1;fill-rule:nonzero;stroke:none;stroke-width:0.35277778"
         id="path1021"
         inkscape:connector-curvature="0" />
      <path
         inkscape:connector-curvature="0"
         id="path1023"
         style="fill:#000000;fill-opacity:1;fill-rule:nonzero;stroke:none;stroke-width:0.35277778"
         d="m 16.21515,309.57526 h 0.642055 v 0.55033 H 16.21515 Z m 0.642055,3.31576 c 0,0.58702 -0.3302,0.82091 -0.793397,0.82091 -0.119239,0 -0.224719,-0.0138 -0.316441,-0.0367 v -0.4632 c 0.03669,0.009 0.07796,0.0138 0.123825,0.0138 0.224719,0 0.343958,-0.0963 0.343958,-0.43109 v -2.28388 h 0.642055 z" />
      <path
         d="m 18.774165,311.77194 c -0.137583,0.009 -0.3302,0.0275 -0.467783,0.0505 -0.265995,0.0459 -0.376061,0.13299 -0.376061,0.32102 0,0.17428 0.119238,0.29352 0.343958,0.29352 0.132997,0 0.275167,-0.0413 0.366889,-0.133 0.110066,-0.11007 0.132997,-0.23389 0.132997,-0.44485 z m 0.619125,-0.41275 v 0.84384 c 0,0.29352 0.02293,0.48155 0.06421,0.63747 h -0.57785 c -0.02293,-0.0963 -0.0321,-0.1972 -0.0321,-0.31185 h -0.0092 c -0.174273,0.24765 -0.435681,0.36689 -0.756709,0.36689 -0.4953,0 -0.793397,-0.30269 -0.793397,-0.70626 0,-0.38065 0.229306,-0.63747 0.903464,-0.74295 0.174272,-0.0275 0.43568,-0.055 0.582436,-0.0642 v -0.0825 c 0,-0.29351 -0.155928,-0.41275 -0.380647,-0.41275 -0.238478,0 -0.376061,0.133 -0.385234,0.35313 h -0.623711 c 0.02258,-0.44485 0.343959,-0.80257 1.008945,-0.80257 0.6604,0 0.999772,0.31186 0.999772,0.92181"
         style="fill:#000000;fill-opacity:1;fill-rule:nonzero;stroke:none;stroke-width:0.35277778"
         id="path1027"
         inkscape:connector-curvature="0" />
      <path
         d="m 20.581128,312.32693 v 0.009 h 1.187803 v 0.50447 h -1.962856 v -0.52281 l 1.141942,-1.29329 v -0.009 h -1.096081 v -0.50447 h 1.871134 v 0.52282 z"
         style="fill:#000000;fill-opacity:1;fill-rule:nonzero;stroke:none;stroke-width:0.35277778"
         id="path1031"
         inkscape:connector-curvature="0" />
      <path
         d="m 23.406278,312.85436 c -0.233892,0.65581 -0.527403,0.86219 -1.109839,0.86219 -0.114653,0 -0.238478,-0.0138 -0.334786,-0.0367 v -0.51364 c 0.06421,0.0229 0.150989,0.0367 0.247297,0.0367 0.257175,0 0.426861,-0.14675 0.426861,-0.37606 0,-0.0871 -0.01834,-0.16051 -0.110066,-0.42192 l -0.6604,-1.89406 h 0.687916 l 0.238478,0.77964 c 0.09631,0.32102 0.183445,0.65122 0.256822,0.97684 h 0.0092 c 0.07796,-0.32562 0.1651,-0.65582 0.27058,-0.97684 l 0.252236,-0.77964 h 0.6604 z"
         style="fill:#000000;fill-opacity:1;fill-rule:nonzero;stroke:none;stroke-width:0.35277778"
         id="path1035-6"
         inkscape:connector-curvature="0" />
      <path
         d="m 25.951499,312.84061 -0.779639,-1.09149 h -0.0092 v 1.09149 h -0.64238 v -3.26531 h 0.642408 v 1.87572 h 0.0092 l 0.752122,-0.94015 h 0.724606 l -0.88512,1.07315 0.981428,1.25659 z"
         style="fill:#000000;fill-opacity:1;fill-rule:nonzero;stroke:none;stroke-width:0.35277778"
         id="path1039"
         inkscape:connector-curvature="0" />
      <path
         d="m 27.533672,311.67563 c 0,0.45402 0.201789,0.74295 0.518231,0.74295 0.316441,0 0.51823,-0.28893 0.51823,-0.74295 0,-0.45402 -0.201789,-0.74295 -0.51823,-0.74295 -0.316442,0 -0.518231,0.28893 -0.518231,0.74295 m 1.710619,0 c 0,0.75671 -0.463197,1.23825 -1.192388,1.23825 -0.729192,0 -1.192389,-0.48154 -1.192389,-1.23825 0,-0.75671 0.463197,-1.23825 1.192389,-1.23825 0.729191,0 1.192388,0.48154 1.192388,1.23825"
         style="fill:#000000;fill-opacity:1;fill-rule:nonzero;stroke:none;stroke-width:0.35277778"
         id="path1043-7"
         inkscape:connector-curvature="0" />
      <path
         d="m 30.156927,312.84061 -0.784225,-2.32974 h 0.669572 l 0.270581,0.91722 c 0.09631,0.3302 0.183444,0.66957 0.256822,1.00894 h 0.0092 c 0.07338,-0.33937 0.160514,-0.67874 0.256822,-1.00894 l 0.270581,-0.91722 h 0.669572 l -0.784225,2.32974 z"
         style="fill:#000000;fill-opacity:1;fill-rule:nonzero;stroke:none;stroke-width:0.35277778"
         id="path1047-3"
         inkscape:connector-curvature="0" />
      <path
         d="m 32.66546,310.24473 0.353131,-0.66957 h 0.793397 l -0.642056,0.66957 z m -0.114653,1.16029 h 1.018117 c -0.04128,-0.35313 -0.252236,-0.51365 -0.509058,-0.51365 -0.261409,0 -0.458612,0.16052 -0.509059,0.51365 m 0.972256,0.72919 h 0.655814 c -0.09172,0.42651 -0.4953,0.77964 -1.114425,0.77964 -0.733778,0 -1.160286,-0.51365 -1.160286,-1.2566 0,-0.68791 0.426508,-1.2199 1.1557,-1.2199 0.536575,0 0.931333,0.30268 1.078088,0.77505 0.05009,0.16051 0.07338,0.33937 0.07338,0.59619 h -1.674283 c 0.01834,0.48155 0.252236,0.65123 0.527403,0.65123 0.256822,0 0.426508,-0.13758 0.458611,-0.32561"
         style="fill:#000000;fill-opacity:1;fill-rule:nonzero;stroke:none;stroke-width:0.35277778"
         id="path1051-6"
         inkscape:connector-curvature="0" />
      <path
         d="m 35.334717,310.76751 c 0.1651,-0.21096 0.394406,-0.31186 0.641703,-0.31186 0.523169,0 0.857955,0.32103 0.857955,0.95392 v 1.43086 H 36.19232 v -1.36666 c 0,-0.35313 -0.156281,-0.51364 -0.408517,-0.51364 -0.265642,0 -0.458258,0.20637 -0.458258,0.63288 v 1.24742 h -0.642409 v -3.26531 h 0.642409 v 1.19239 z"
         style="fill:#000000;fill-opacity:1;fill-rule:nonzero;stroke:none;stroke-width:0.35277778"
         id="path1055-9"
         inkscape:connector-curvature="0" />
      <path
         d="m 37.957832,311.67563 c 0,0.45402 0.201789,0.74295 0.518231,0.74295 0.316441,0 0.51823,-0.28893 0.51823,-0.74295 0,-0.45402 -0.201789,-0.74295 -0.51823,-0.74295 -0.316442,0 -0.518231,0.28893 -0.518231,0.74295 m 1.710619,0 c 0,0.75671 -0.463197,1.23825 -1.192388,1.23825 -0.729545,0 -1.192389,-0.48154 -1.192389,-1.23825 0,-0.75671 0.462844,-1.23825 1.192389,-1.23825 0.729191,0 1.192388,0.48154 1.192388,1.23825"
         style="fill:#000000;fill-opacity:1;fill-rule:nonzero;stroke:none;stroke-width:0.35277778"
         id="path1059-2"
         inkscape:connector-curvature="0" />
      <path
         d="m 16.646315,318.1321 -0.784225,-2.32974 h 0.669572 l 0.270581,0.91722 c 0.09631,0.3302 0.183444,0.66957 0.256822,1.00859 h 0.0092 c 0.07338,-0.33902 0.160514,-0.67839 0.256822,-1.00859 l 0.270581,-0.91722 h 0.669572 l -0.784225,2.32974 z"
         style="fill:#000000;fill-opacity:1;fill-rule:nonzero;stroke:none;stroke-width:0.35277778"
         id="path1063-0"
         inkscape:connector-curvature="0" />
      <path
         d="m 19.136397,317.61842 v 0.009 H 20.3242 v 0.50447 h -1.962856 v -0.52281 l 1.141942,-1.29329 v -0.009 h -1.096081 v -0.50447 h 1.871134 v 0.52282 z"
         style="fill:#000000;fill-opacity:1;fill-rule:nonzero;stroke:none;stroke-width:0.35277778"
         id="path1067-3"
         inkscape:connector-curvature="0" />
      <path
         d="m 21.282697,316.96729 c 0,0.44485 0.197203,0.73378 0.504472,0.73378 0.288925,0 0.486128,-0.27094 0.486128,-0.73378 0,-0.4632 -0.197203,-0.73378 -0.486128,-0.73378 -0.307269,0 -0.504472,0.28857 -0.504472,0.73378 m 0.976842,1.16487 v -0.30727 h -0.0092 c -0.142169,0.23813 -0.398991,0.36689 -0.669572,0.36689 -0.587022,0 -0.967669,-0.48189 -0.967669,-1.22449 0,-0.74295 0.376061,-1.22484 0.958497,-1.22484 0.265994,0 0.518231,0.11923 0.6604,0.33937 h 0.0092 v -1.21497 h 0.642056 v 3.26531 z"
         style="fill:#000000;fill-opacity:1;fill-rule:nonzero;stroke:none;stroke-width:0.35277778"
         id="path1071-0"
         inkscape:connector-curvature="0" />
      <path
         d="m 24.002261,316.6965 h 1.018117 c -0.04128,-0.35313 -0.252236,-0.51364 -0.509059,-0.51364 -0.261408,0 -0.458611,0.16051 -0.509058,0.51364 m -0.362303,-1.82986 h 0.587022 l 0.279753,0.34855 0.275167,-0.34855 h 0.587022 l -0.522817,0.66957 h -0.68333 z m 1.334559,2.55905 h 0.655813 c -0.09172,0.42651 -0.4953,0.77964 -1.114425,0.77964 -0.733777,0 -1.160286,-0.51364 -1.160286,-1.25659 0,-0.68792 0.426509,-1.21991 1.1557,-1.21991 0.536575,0 0.930981,0.30268 1.077736,0.77505 0.05045,0.16052 0.07338,0.33938 0.07338,0.59655 h -1.67393 c 0.01834,0.48119 0.252236,0.65088 0.527402,0.65088 0.256823,0 0.426509,-0.13724 0.458612,-0.32562"
         style="fill:#000000;fill-opacity:1;fill-rule:nonzero;stroke:none;stroke-width:0.35277778"
         id="path1075-2"
         inkscape:connector-curvature="0" />
      <path
         inkscape:connector-curvature="0"
         id="path1077"
         style="fill:#000000;fill-opacity:1;fill-rule:nonzero;stroke:none;stroke-width:0.35277778"
         d="m 26.134908,314.86693 h 0.642056 v 3.26531 h -0.642056 z" />
      <path
         d="m 27.895728,315.53622 0.353131,-0.66922 h 0.793397 l -0.642056,0.66922 z m 0.797983,1.52717 c -0.137583,0.009 -0.3302,0.0275 -0.467783,0.0508 -0.265994,0.0459 -0.376061,0.133 -0.376061,0.32068 0,0.17427 0.119239,0.29351 0.343958,0.29351 0.132997,0 0.275167,-0.0409 0.366889,-0.133 0.110067,-0.11006 0.132997,-0.23354 0.132997,-0.44485 z m 0.619125,-0.41275 v 0.8442 c 0,0.29351 0.02293,0.48119 0.06421,0.63712 h -0.57785 c -0.02293,-0.0963 -0.0321,-0.19685 -0.0321,-0.3115 h -0.0092 c -0.174272,0.24765 -0.435681,0.36688 -0.756708,0.36688 -0.4953,0 -0.793398,-0.30303 -0.793398,-0.70626 0,-0.38064 0.229306,-0.63782 0.903464,-0.7433 0.174272,-0.0275 0.435681,-0.055 0.582436,-0.0639 v -0.0829 c 0,-0.29352 -0.155927,-0.41275 -0.380647,-0.41275 -0.238478,0 -0.376061,0.13299 -0.385233,0.35313 h -0.62369 c 0.02293,-0.4445 0.343958,-0.80257 1.008944,-0.80257 0.6604,0 0.999772,0.3122 0.999772,0.9218"
         style="fill:#000000;fill-opacity:1;fill-rule:nonzero;stroke:none;stroke-width:0.35277778"
         id="path1081"
         inkscape:connector-curvature="0" />
      <path
         d="m 30.349156,318.1321 -0.784225,-2.32974 h 0.669572 l 0.270581,0.91722 c 0.09631,0.3302 0.183444,0.66957 0.256822,1.00859 h 0.0092 c 0.07338,-0.33902 0.160514,-0.67839 0.256822,-1.00859 l 0.270581,-0.91722 h 0.669572 l -0.784225,2.32974 z"
         style="fill:#000000;fill-opacity:1;fill-rule:nonzero;stroke:none;stroke-width:0.35277778"
         id="path1085"
         inkscape:connector-curvature="0" />
      <path
         d="m 32.743318,315.53622 0.353131,-0.66922 h 0.79375 l -0.642409,0.66922 z m 0.797983,1.52717 c -0.137583,0.009 -0.3302,0.0275 -0.467783,0.0508 -0.265994,0.0459 -0.376061,0.133 -0.376061,0.32068 0,0.17427 0.119239,0.29351 0.343958,0.29351 0.132997,0 0.275167,-0.0409 0.366889,-0.133 0.110067,-0.11006 0.132997,-0.23354 0.132997,-0.44485 z m 0.619478,-0.41275 v 0.8442 c 0,0.29351 0.02293,0.48119 0.06385,0.63712 h -0.57785 c -0.02258,-0.0963 -0.0321,-0.19685 -0.0321,-0.3115 h -0.0092 c -0.174272,0.24765 -0.435681,0.36688 -0.756708,0.36688 -0.4953,0 -0.793398,-0.30303 -0.793398,-0.70626 0,-0.38064 0.229306,-0.63782 0.903464,-0.7433 0.174272,-0.0275 0.435681,-0.055 0.582436,-0.0639 v -0.0829 c 0,-0.29352 -0.155927,-0.41275 -0.380647,-0.41275 -0.238478,0 -0.376061,0.13299 -0.385233,0.35313 H 32.15171 c 0.02293,-0.4445 0.343958,-0.80257 1.008944,-0.80257 0.660753,0 1.000125,0.3122 1.000125,0.9218"
         style="fill:#000000;fill-opacity:1;fill-rule:nonzero;stroke:none;stroke-width:0.35277778"
         id="path1089-6"
         inkscape:connector-curvature="0" />
      <path
         d="m 36.907753,316.70098 v 1.43122 h -0.642056 v -1.36666 c 0,-0.35313 -0.15628,-0.51365 -0.408516,-0.51365 -0.265642,0 -0.458259,0.21061 -0.458259,0.63289 v 1.24742 h -0.642408 v -2.3301 h 0.600781 v 0.29351 h 0.0095 c 0.151341,-0.20637 0.385233,-0.34819 0.682977,-0.34819 0.52317,0 0.857956,0.32068 0.857956,0.95356"
         style="fill:#000000;fill-opacity:1;fill-rule:nonzero;stroke:none;stroke-width:0.35277778"
         id="path1093-8"
         inkscape:connector-curvature="0" />
      <path
         inkscape:connector-curvature="0"
         id="path1095"
         style="fill:#000000;fill-opacity:1;fill-rule:nonzero;stroke:none;stroke-width:0.35277778"
         d="m 37.508111,315.80214 h 0.642055 v 2.32974 h -0.642055 z m -0.06844,-0.266 0.35313,-0.66921 h 0.793397 l -0.642055,0.66921 z" />
    </g>
    <g
       id="g1968"
       transform="matrix(0.70754429,0,0,0.70754429,-16.172685,55.014041)">
      <path
         inkscape:connector-curvature="0"
         id="path1674"
         style="fill:#000000;fill-opacity:1;fill-rule:nonzero;stroke:none;stroke-width:0.35277778"
         d="m 34.707483,277.29075 h 1.164167 v 7.40798 h -1.164167 z m -0.433564,0 h 0.391231 l -0.719314,7.40798 h -0.391584 z m -1.87325,0 H 32.7919 l 0.719666,7.40798 h -0.39123 z m -1.196269,0 h 1.153936 v 7.40798 H 31.2044 Z" />
      <path
         d="m 40.242778,277.29075 v 5.66173 c 0,0.40217 0.360186,0.68792 0.6985,0.68792 0.338667,0 0.6985,-0.28575 0.6985,-0.68792 v -5.66173 h 1.164167 v 5.70406 c 0,0.99484 -0.899584,1.76742 -1.862667,1.76742 -0.963083,0 -1.862667,-0.77258 -1.862667,-1.76742 v -5.70406 z"
         style="fill:#000000;fill-opacity:1;fill-rule:nonzero;stroke:none;stroke-width:0.35277778"
         id="path1686"
         inkscape:connector-curvature="0" />
      <path
         inkscape:connector-curvature="0"
         id="path1688"
         style="fill:#000000;fill-opacity:1;fill-rule:nonzero;stroke:none;stroke-width:0.35277778"
         d="m 50.307669,284.69873 h -1.16452 v -7.40798 h 1.16452 z m -2.307167,-7.40798 1.100667,7.40798 h -0.40252 l -1.100314,-7.40798 z m -0.4445,7.40798 h -1.164167 v -7.40798 h 1.164167 z" />
      <path
         d="m 55.165207,284.28601 v -6.58248 h -0.994481 v -0.41275 h 3.164064 v 0.41275 h -1.005416 v 6.58248 h 1.005416 v 0.41275 h -3.164064 v -0.41275 z"
         style="fill:#000000;fill-opacity:1;fill-rule:nonzero;stroke:none;stroke-width:0.35277778"
         id="path1692"
         inkscape:connector-curvature="0" />
      <path
         d="m 31.966611,287.87408 h 3.52425 v 0.52917 h -2.95275 v 3.07939 h 2.82575 v 0.52917 h -2.82575 v 3.27025 h -0.5715 z"
         style="fill:#000000;fill-opacity:1;fill-rule:nonzero;stroke:none;stroke-width:0.35277778"
         id="path1696"
         inkscape:connector-curvature="0" />
      <path
         d="m 40.920076,287.87408 -0.973667,4.5399 h 1.9685 l -0.9525,-4.5399 h 0.5715 l 1.576917,7.40798 h -0.592667 l -0.508,-2.33892 h -2.158647 l -0.497417,2.33892 h -0.593019 l 1.598083,-7.40798 z"
         style="fill:#000000;fill-opacity:1;fill-rule:nonzero;stroke:none;stroke-width:0.35277778"
         id="path1700"
         inkscape:connector-curvature="0" />
      <path
         d="m 49.831172,287.87408 h 0.645583 l -2.413,3.67242 2.497667,3.73556 h -0.677333 l -2.486731,-3.71475 z m -2.4765,7.40798 h -0.5715 v -7.40798 h 0.5715 z"
         style="fill:#000000;fill-opacity:1;fill-rule:nonzero;stroke:none;stroke-width:0.35277778"
         id="path1704"
         inkscape:connector-curvature="0" />
      <path
         d="m 54.498563,287.87408 v 5.69383 c 0,0.68757 0.582083,1.22732 1.259417,1.22732 0.656166,0 1.259416,-0.53975 1.259416,-1.22732 v -5.69383 h 0.5715 v 5.70406 c 0,1.04811 -0.814916,1.76742 -1.830916,1.76742 -1.016,0 -1.830917,-0.71931 -1.830917,-1.76742 v -5.70406 z"
         style="fill:#000000;fill-opacity:1;fill-rule:nonzero;stroke:none;stroke-width:0.35277778"
         id="path1708"
         inkscape:connector-curvature="0" />
      <path
         d="m 62.171479,287.87408 v 6.87881 h 3.164417 v 0.52917 h -3.735917 v -7.40798 z"
         style="fill:#000000;fill-opacity:1;fill-rule:nonzero;stroke:none;stroke-width:0.35277778"
         id="path1712"
         inkscape:connector-curvature="0" />
      <path
         d="m 68.309954,288.40325 v -0.52917 h 4.529314 v 0.52917 h -1.979084 v 6.87881 h -0.571499 v -6.87881 z"
         style="fill:#000000;fill-opacity:1;fill-rule:nonzero;stroke:none;stroke-width:0.35277778"
         id="path1716"
         inkscape:connector-curvature="0" />
      <path
         d="m 77.961389,287.87408 -0.973667,4.5399 h 1.9685 l -0.9525,-4.5399 h 0.5715 l 1.576917,7.40798 h -0.592667 l -0.508,-2.33892 h -2.158647 l -0.497417,2.33892 h -0.592666 l 1.59773,-7.40798 z"
         style="fill:#000000;fill-opacity:1;fill-rule:nonzero;stroke:none;stroke-width:0.35277778"
         id="path1720"
         inkscape:connector-curvature="0" />
      <path
         d="m 33.247159,305.49505 v -6.66715 h -1.291167 v -0.37041 h 3.153834 v 0.37041 h -1.291167 v 6.66715 h 1.291167 v 0.37042 h -3.153834 v -0.37042 z"
         style="fill:#000000;fill-opacity:1;fill-rule:nonzero;stroke:none;stroke-width:0.35277778"
         id="path1724"
         inkscape:connector-curvature="0" />
      <path
         inkscape:connector-curvature="0"
         id="path1726"
         style="fill:#000000;fill-opacity:1;fill-rule:nonzero;stroke:none;stroke-width:0.35277778"
         d="m 42.899336,305.86539 h -0.5715 v -7.40798 h 0.5715 z m -2.910417,-7.40798 2.296583,7.40798 h -0.41275 l -2.275769,-7.40798 z m -0.43427,7.40798 h -0.571147 v -7.40798 h 0.571147 z" />
      <path
         d="m 46.783278,298.45741 h 3.52425 v 0.52917 h -2.95275 v 3.07939 h 2.82575 v 0.52917 h -2.82575 v 3.27025 h -0.5715 z"
         style="fill:#000000;fill-opacity:1;fill-rule:nonzero;stroke:none;stroke-width:0.35277778"
         id="path1730"
         inkscape:connector-curvature="0" />
      <path
         d="m 55.758085,298.94418 c -0.677333,0 -1.259417,0.47625 -1.259417,1.22767 v 3.97933 c 0,0.75142 0.582084,1.22731 1.259417,1.22731 0.655814,0 1.259064,-0.47589 1.259064,-1.22731 v -3.97933 c 0,-0.75142 -0.60325,-1.22767 -1.259064,-1.22767 m 0,-0.55033 c 1.016,0 1.830564,0.74083 1.830564,1.76706 v 4.0005 c 0,1.0481 -0.814564,1.76742 -1.830564,1.76742 -1.016,0 -1.830917,-0.71932 -1.830917,-1.76742 v -4.0005 c 0,-1.02623 0.814917,-1.76706 1.830917,-1.76706"
         style="fill:#000000;fill-opacity:1;fill-rule:nonzero;stroke:none;stroke-width:0.35277778"
         id="path1734"
         inkscape:connector-curvature="0" />
      <path
         d="m 64.637149,300.90202 v -0.66675 c 0,-0.6985 -0.581731,-1.24883 -1.259064,-1.24883 h -1.30175 v 3.20639 h 1.30175 c 0.708731,0 1.259064,-0.52916 1.259064,-1.29081 m -1.206147,-2.44475 c 0.963083,0 1.767416,0.80469 1.767416,1.76742 v 0.74083 c 0,0.89923 -0.687916,1.62983 -1.55575,1.70392 l 1.80975,3.19581 h -0.656519 l -1.756481,-3.13231 h -0.963083 v 3.13231 h -0.5715 v -7.40798 z"
         style="fill:#000000;fill-opacity:1;fill-rule:nonzero;stroke:none;stroke-width:0.35277778"
         id="path1738"
         inkscape:connector-curvature="0" />
      <path
         inkscape:connector-curvature="0"
         id="path1740"
         style="fill:#000000;fill-opacity:1;fill-rule:nonzero;stroke:none;stroke-width:0.35277778"
         d="m 72.257502,298.45741 h 0.5715 v 7.40798 h -0.5715 z m -0.41275,0 h 0.370063 l -1.248833,7.40798 h -0.370064 z m -2.921353,0 h 0.381 l 1.248833,7.40798 h -0.381 z m -0.60325,0 h 0.561269 v 7.40798 h -0.561269 z" />
      <path
         d="m 77.961389,298.45741 -0.973667,4.5399 h 1.9685 l -0.9525,-4.5399 h 0.5715 l 1.576917,7.40798 h -0.592667 l -0.508,-2.33892 h -2.158647 l -0.497417,2.33892 h -0.592666 l 1.59773,-7.40798 z"
         style="fill:#000000;fill-opacity:1;fill-rule:nonzero;stroke:none;stroke-width:0.35277778"
         id="path1744"
         inkscape:connector-curvature="0" />
      <path
         d="m 83.126267,298.98658 v -0.52917 h 4.529314 v 0.52917 h -1.979084 v 6.87881 h -0.571499 v -6.87881 z"
         style="fill:#000000;fill-opacity:1;fill-rule:nonzero;stroke:none;stroke-width:0.35277778"
         id="path1748"
         inkscape:connector-curvature="0" />
      <path
         d="m 92.513472,305.49505 v -6.66715 h -1.291167 v -0.37041 h 3.153834 v 0.37041 h -1.291167 v 6.66715 h 1.291167 v 0.37042 h -3.153834 v -0.37042 z"
         style="fill:#000000;fill-opacity:1;fill-rule:nonzero;stroke:none;stroke-width:0.35277778"
         id="path1752"
         inkscape:connector-curvature="0" />
      <path
         d="m 101.68915,298.45741 h 0.64558 l -2.412997,3.67206 2.497667,3.73592 h -0.67733 l -2.486734,-3.7144 z m -2.4765,7.40798 h -0.5715 v -7.40798 h 0.5715 z"
         style="fill:#000000;fill-opacity:1;fill-rule:nonzero;stroke:none;stroke-width:0.35277778"
         id="path1756"
         inkscape:connector-curvature="0" />
      <path
         d="m 105.51009,298.45741 h 0.61348 l 1.48167,3.38667 1.50283,-3.38667 h 0.60325 l -1.82033,4.13773 v 3.27025 h -0.56092 v -3.27025 z"
         style="fill:#000000;fill-opacity:1;fill-rule:nonzero;stroke:none;stroke-width:0.35277778"
         id="path1760"
         inkscape:connector-curvature="0" />
    </g>
  </g>
</svg>
