<?xml version="1.0" encoding="UTF-8" standalone="no"?>
<!-- Created with Inkscape (http://www.inkscape.org/) -->

<svg
   xmlns:dc="http://purl.org/dc/elements/1.1/"
   xmlns:cc="http://creativecommons.org/ns#"
   xmlns:rdf="http://www.w3.org/1999/02/22-rdf-syntax-ns#"
   xmlns:svg="http://www.w3.org/2000/svg"
   xmlns="http://www.w3.org/2000/svg"
   xmlns:sodipodi="http://sodipodi.sourceforge.net/DTD/sodipodi-0.dtd"
   xmlns:inkscape="http://www.inkscape.org/namespaces/inkscape"
   width="105mm"
   height="148mm"
   viewBox="0 0 105 148"
   version="1.1"
   id="svg8"
   inkscape:version="0.92.3 (2405546, 2018-03-11)"
   sodipodi:docname="cover-front.svg">
  <defs
     id="defs2">
    <inkscape:path-effect
       is_visible="true"
       id="path-effect4364"
       effect="spiro" />
    <inkscape:path-effect
       effect="spiro"
       id="path-effect4885"
       is_visible="true" />
    <inkscape:path-effect
       is_visible="true"
       id="path-effect4809"
       effect="spiro" />
    <inkscape:path-effect
       is_visible="true"
       id="path-effect4390"
       effect="spiro" />
    <inkscape:path-effect
       effect="spiro"
       id="path-effect4374"
       is_visible="true" />
    <inkscape:path-effect
       is_visible="true"
       id="path-effect4333"
       effect="spiro" />
    <inkscape:path-effect
       effect="spiro"
       id="path-effect4327"
       is_visible="true" />
    <inkscape:path-effect
       effect="spiro"
       id="path-effect4323"
       is_visible="true" />
    <inkscape:path-effect
       is_visible="true"
       id="path-effect4390-6"
       effect="spiro" />
    <inkscape:path-effect
       is_visible="true"
       id="path-effect4390-5"
       effect="spiro" />
    <inkscape:path-effect
       is_visible="true"
       id="path-effect4390-56"
       effect="spiro" />
    <inkscape:path-effect
       is_visible="true"
       id="path-effect4390-56-9"
       effect="spiro" />
    <inkscape:path-effect
       is_visible="true"
       id="path-effect4390-5-2"
       effect="spiro" />
    <inkscape:path-effect
       effect="spiro"
       id="path-effect4374-0"
       is_visible="true" />
    <inkscape:path-effect
       effect="spiro"
       id="path-effect4374-3"
       is_visible="true" />
    <inkscape:path-effect
       effect="spiro"
       id="path-effect4374-06"
       is_visible="true" />
    <inkscape:path-effect
       effect="spiro"
       id="path-effect4374-6"
       is_visible="true" />
    <inkscape:path-effect
       effect="spiro"
       id="path-effect4374-8"
       is_visible="true" />
    <inkscape:path-effect
       effect="spiro"
       id="path-effect4374-9"
       is_visible="true" />
    <inkscape:path-effect
       effect="spiro"
       id="path-effect4374-2"
       is_visible="true" />
    <inkscape:path-effect
       effect="spiro"
       id="path-effect4374-7"
       is_visible="true" />
    <inkscape:path-effect
       effect="spiro"
       id="path-effect4374-6-9"
       is_visible="true" />
    <inkscape:path-effect
       effect="spiro"
       id="path-effect4374-6-2"
       is_visible="true" />
    <inkscape:path-effect
       effect="spiro"
       id="path-effect4374-6-97"
       is_visible="true" />
    <inkscape:path-effect
       effect="spiro"
       id="path-effect4374-8-6"
       is_visible="true" />
    <inkscape:path-effect
       effect="spiro"
       id="path-effect4374-6-29"
       is_visible="true" />
    <inkscape:path-effect
       effect="spiro"
       id="path-effect4374-94"
       is_visible="true" />
    <inkscape:path-effect
       effect="spiro"
       id="path-effect4374-0-7"
       is_visible="true" />
    <inkscape:path-effect
       effect="spiro"
       id="path-effect4374-3-8"
       is_visible="true" />
    <inkscape:path-effect
       effect="spiro"
       id="path-effect4374-06-4"
       is_visible="true" />
    <inkscape:path-effect
       effect="spiro"
       id="path-effect4374-6-5"
       is_visible="true" />
    <inkscape:path-effect
       effect="spiro"
       id="path-effect4374-8-0"
       is_visible="true" />
    <inkscape:path-effect
       effect="spiro"
       id="path-effect4374-2-3"
       is_visible="true" />
    <inkscape:path-effect
       effect="spiro"
       id="path-effect4374-7-6"
       is_visible="true" />
    <inkscape:path-effect
       effect="spiro"
       id="path-effect4374-6-9-1"
       is_visible="true" />
    <inkscape:path-effect
       effect="spiro"
       id="path-effect4374-6-2-0"
       is_visible="true" />
    <inkscape:path-effect
       effect="spiro"
       id="path-effect4374-6-97-6"
       is_visible="true" />
    <inkscape:path-effect
       effect="spiro"
       id="path-effect4374-8-6-3"
       is_visible="true" />
    <inkscape:path-effect
       effect="spiro"
       id="path-effect4374-6-29-2"
       is_visible="true" />
    <inkscape:path-effect
       effect="spiro"
       id="path-effect4374-4"
       is_visible="true" />
    <inkscape:path-effect
       effect="spiro"
       id="path-effect4374-0-4"
       is_visible="true" />
    <inkscape:path-effect
       effect="spiro"
       id="path-effect4374-3-3"
       is_visible="true" />
    <inkscape:path-effect
       effect="spiro"
       id="path-effect4374-06-0"
       is_visible="true" />
    <inkscape:path-effect
       effect="spiro"
       id="path-effect4374-6-7"
       is_visible="true" />
    <inkscape:path-effect
       effect="spiro"
       id="path-effect4374-8-8"
       is_visible="true" />
    <inkscape:path-effect
       is_visible="true"
       id="path-effect4809-6"
       effect="spiro" />
    <clipPath
       id="clipPath898"
       clipPathUnits="userSpaceOnUse">
      <path
         inkscape:connector-curvature="0"
         id="path896"
         d="M 0,77.453 H 100.528 V 0 H 0 Z" />
    </clipPath>
    <clipPath
       id="clipPath951"
       clipPathUnits="userSpaceOnUse">
      <path
         inkscape:connector-curvature="0"
         id="path949"
         d="M 0,82.67 H 107.358 V 0 H 0 Z" />
    </clipPath>
    <inkscape:path-effect
       effect="spiro"
       id="path-effect4374-67"
       is_visible="true" />
    <inkscape:path-effect
       effect="spiro"
       id="path-effect4374-0-5"
       is_visible="true" />
    <inkscape:path-effect
       effect="spiro"
       id="path-effect4374-3-3-1"
       is_visible="true" />
    <inkscape:path-effect
       effect="spiro"
       id="path-effect4374-06-5"
       is_visible="true" />
    <inkscape:path-effect
       effect="spiro"
       id="path-effect4374-6-6"
       is_visible="true" />
    <inkscape:path-effect
       effect="spiro"
       id="path-effect4374-8-2"
       is_visible="true" />
    <inkscape:path-effect
       is_visible="true"
       id="path-effect4809-9"
       effect="spiro" />
  </defs>
  <sodipodi:namedview
     id="base"
     pagecolor="#ffffff"
     bordercolor="#666666"
     borderopacity="1.0"
     inkscape:pageopacity="0.0"
     inkscape:pageshadow="2"
     inkscape:zoom="1.2148122"
     inkscape:cx="16.364668"
     inkscape:cy="295.00409"
     inkscape:document-units="mm"
     inkscape:current-layer="layer1"
     inkscape:document-rotation="0"
     showgrid="false"
     showguides="true"
     inkscape:guide-bbox="true"
     inkscape:snap-page="true"
     inkscape:snap-bbox="true"
     inkscape:bbox-paths="false"
     inkscape:bbox-nodes="false"
     inkscape:snap-bbox-edge-midpoints="false"
     inkscape:snap-bbox-midpoints="false"
     inkscape:object-paths="true"
     inkscape:snap-intersection-paths="true"
     inkscape:snap-smooth-nodes="true"
     inkscape:snap-midpoints="true"
     inkscape:snap-object-midpoints="true"
     inkscape:snap-center="true"
     inkscape:window-width="1920"
     inkscape:window-height="1163"
     inkscape:window-x="0"
     inkscape:window-y="0"
     inkscape:window-maximized="1" />
  <metadata
     id="metadata5">
    <rdf:RDF>
      <cc:Work
         rdf:about="">
        <dc:format>image/svg+xml</dc:format>
        <dc:type
           rdf:resource="http://purl.org/dc/dcmitype/StillImage" />
        <dc:title></dc:title>
      </cc:Work>
    </rdf:RDF>
  </metadata>
  <g
     inkscape:label="Layer 1"
     inkscape:groupmode="layer"
     id="layer1"
     transform="translate(0,-149)">
    <flowRoot
       xml:space="preserve"
       id="flowRoot6550"
       style="fill:none;stroke:black;stroke-opacity:1;stroke-width:1px;stroke-linejoin:miter;stroke-linecap:butt;font-family:muni;font-size:26.66666667px;line-height:100%;letter-spacing:0px;word-spacing:0px;-inkscape-font-specification:'muni Bold';text-anchor:start;text-align:start;font-weight:bold;font-style:normal;font-stretch:normal;font-variant:normal"><flowRegion
         id="flowRegion6552"><rect
           id="rect6554"
           width="223.90292"
           height="193.44554"
           x="-80.670906"
           y="-37.429985" /></flowRegion><flowPara
         id="flowPara6556"></flowPara></flowRoot>    <rect
       style="opacity:1;vector-effect:none;fill:#ffe333;fill-opacity:1;stroke:none;stroke-width:1;stroke-linecap:butt;stroke-linejoin:miter;stroke-miterlimit:4;stroke-dasharray:none;stroke-dashoffset:0;stroke-opacity:1"
       id="rect874"
       width="104.99999"
       height="148"
       x="-6.8212889e-06"
       y="148.99998" />
    <path
       d="M 0.06614,149.06614 V 297.06615 M 2.71197,149.06614 V 297.06615 M 5.35781,149.06614 V 297.06615 M 8.00364,149.06614 v 148.00001 m 2.64583,-148.00001 v 148.00001 m 2.64584,-148.00001 v 148.00001 m 2.64583,-148.00001 v 148.00001 m 2.64583,-148.00001 v 148.00001 m 2.64584,-148.00001 v 148.00001 m 2.64583,-148.00001 v 148.00001 m 2.64583,-148.00001 v 148.00001 m 2.64584,-148.00001 v 148.00001 m 2.64583,-148.00001 v 148.00001 m 2.64583,-148.00001 v 148.00001 m 2.64584,-148.00001 v 148.00001 m 2.64583,-148.00001 v 148.00001 m 2.64583,-148.00001 v 148.00001 m 2.64584,-148.00001 v 148.00001 m 2.64583,-148.00001 v 148.00001 m 2.64583,-148.00001 v 148.00001 m 2.64584,-148.00001 v 148.00001 m 2.64583,-148.00001 v 148.00001 m 2.64583,-148.00001 v 148.00001 m 2.64584,-148.00001 v 148.00001 m 2.64583,-148.00001 v 148.00001 m 2.64583,-148.00001 v 148.00001 m 2.64584,-148.00001 v 148.00001 m 2.64583,-148.00001 v 148.00001 m 2.64583,-148.00001 v 148.00001 m 2.64584,-148.00001 v 148.00001 m 2.64583,-148.00001 v 148.00001 m 2.64583,-148.00001 v 148.00001 m 2.64584,-148.00001 v 148.00001 m 2.64583,-148.00001 v 148.00001 m 2.64583,-148.00001 v 148.00001 m 2.64584,-148.00001 v 148.00001 m 2.64583,-148.00001 v 148.00001 m 2.64583,-148.00001 v 148.00001 m 2.64583,-148.00001 v 148.00001 m 2.64585,-148.00001 V 297.06615 M 0.06614,149.06614 H 105.06615 M 0.06614,151.71197 H 105.06615 M 0.06614,154.35781 H 105.06615 M 0.06614,157.00364 H 105.06615 M 0.06614,159.64947 H 105.06615 M 0.06614,162.29532 H 105.06615 M 0.06614,164.94115 H 105.06615 M 0.06614,167.58698 H 105.06615 M 0.06614,170.23282 H 105.06615 M 0.06614,172.87865 H 105.06615 M 0.06614,175.52447 H 105.06615 M 0.06614,178.17032 H 105.06615 M 0.06614,180.81615 H 105.06615 M 0.06614,183.46198 H 105.06615 M 0.06614,186.10782 H 105.06615 M 0.06614,188.75365 H 105.06615 M 0.06614,191.39948 H 105.06615 M 0.06614,194.04532 H 105.06615 M 0.06614,196.69115 H 105.06615 M 0.06614,199.33698 H 105.06615 M 0.06614,201.98282 H 105.06615 M 0.06614,204.62865 H 105.06615 M 0.06614,207.27448 H 105.06615 M 0.06614,209.92032 H 105.06615 M 0.06614,212.56615 H 105.06615 M 0.06614,215.21198 H 105.06615 M 0.06614,217.85782 H 105.06615 M 0.06614,220.50365 H 105.06615 M 0.06614,223.14948 H 105.06615 M 0.06614,225.79532 H 105.06615 M 0.06614,228.44115 H 105.06615 M 0.06614,231.08698 H 105.06615 M 0.06614,233.73282 H 105.06615 M 0.06614,236.37865 H 105.06615 M 0.06614,239.02448 H 105.06615 M 0.06614,241.67032 H 105.06615 M 0.06614,244.31615 H 105.06615 M 0.06614,246.96198 H 105.06615 M 0.06614,249.60781 H 105.06615 M 0.06614,252.25365 H 105.06615 M 0.06614,254.89948 H 105.06615 M 0.06614,257.54531 H 105.06615 M 0.06614,260.19115 H 105.06615 M 0.06614,262.83698 H 105.06615 M 0.06614,265.48281 H 105.06615 M 0.06614,268.12865 H 105.06615 M 0.06614,270.77448 H 105.06615 M 0.06614,273.42031 H 105.06615 M 0.06614,276.06615 H 105.06615 M 0.06614,278.71198 H 105.06615 M 0.06614,281.35781 H 105.06615 M 0.06614,284.00365 H 105.06615 M 0.06614,286.64948 H 105.06615 M 0.06614,289.29531 H 105.06615 M 0.06614,291.94115 H 105.06615 M 0.06614,294.58698 h 105.00001"
       style="fill:none;stroke:#f0cf00;stroke-width:0.26458299px;stroke-opacity:1"
       id="path880"
       inkscape:connector-curvature="0" />
    <path
       d="M 0.19843,149.19843 V 297.19844 M 13.4276,149.19843 V 297.19844 M 26.65677,149.19843 V 297.19844 M 39.88593,149.19843 V 297.19844 M 53.1151,149.19843 V 297.19844 M 66.34427,149.19843 V 297.19844 M 79.57343,149.19843 V 297.19844 M 92.8026,149.19843 V 297.19844 M 0.19843,149.19843 H 105.19844 M 0.19843,162.4276 H 105.19844 M 0.19843,175.65677 H 105.19844 M 0.19843,188.88593 H 105.19844 M 0.19843,202.1151 H 105.19844 M 0.19843,215.34427 H 105.19844 M 0.19843,228.57343 H 105.19844 M 0.19843,241.8026 H 105.19844 M 0.19843,255.03177 H 105.19844 M 0.19843,268.26093 H 105.19844 M 0.19843,281.4901 H 105.19844 M 0.19843,294.71927 h 105.00001"
       style="fill:none;stroke:#f0cf00;stroke-width:0.79374999px;stroke-opacity:1"
       id="path882"
       inkscape:connector-curvature="0" />
    <g
       transform="translate(0,-1.2e-5)"
       id="g941"
       style="stroke:#060606;stroke-opacity:1">
      <path
         inkscape:original-d="m 80.440797,218.75567 h 7.50612"
         inkscape:path-effect="#path-effect4374-67"
         inkscape:connector-curvature="0"
         id="path4372"
         d="m 80.440797,218.75567 h 7.50612"
         style="fill:#ffffff;fill-rule:evenodd;stroke:#060606;stroke-width:4;stroke-linecap:round;stroke-linejoin:miter;stroke-miterlimit:4;stroke-dasharray:none;stroke-opacity:1" />
      <path
         inkscape:path-effect="#path-effect4374-0-5"
         inkscape:original-d="m 18.111417,218.75567 h 7.50612"
         inkscape:connector-curvature="0"
         id="path4372-9"
         d="m 18.111417,218.75567 h 7.50612"
         style="fill:#ffffff;fill-rule:evenodd;stroke:#060606;stroke-width:4;stroke-linecap:round;stroke-linejoin:miter;stroke-miterlimit:4;stroke-dasharray:none;stroke-opacity:1" />
      <path
         inkscape:original-d="m 33.646217,199.37273 -5.30762,-5.30763"
         inkscape:path-effect="#path-effect4374-3-3-1"
         inkscape:connector-curvature="0"
         id="path4372-6"
         d="m 33.646217,199.37273 -5.30762,-5.30763"
         style="fill:#ffffff;fill-rule:evenodd;stroke:#060606;stroke-width:4;stroke-linecap:round;stroke-linejoin:miter;stroke-miterlimit:4;stroke-dasharray:none;stroke-opacity:1" />
      <path
         inkscape:original-d="m 53.029167,191.34405 v -7.50612"
         inkscape:path-effect="#path-effect4374-06-5"
         inkscape:connector-curvature="0"
         id="path4372-2"
         d="m 53.029167,191.34405 v -7.50612"
         style="fill:#ffffff;fill-rule:evenodd;stroke:#060606;stroke-width:4;stroke-linecap:round;stroke-linejoin:miter;stroke-miterlimit:4;stroke-dasharray:none;stroke-opacity:1" />
      <path
         inkscape:original-d="m 72.412117,199.37272 5.30762,-5.30762"
         inkscape:path-effect="#path-effect4374-6-6"
         inkscape:connector-curvature="0"
         id="path4372-1"
         d="m 72.412117,199.37272 5.30762,-5.30762"
         style="fill:#ffffff;fill-rule:evenodd;stroke:#060606;stroke-width:4;stroke-linecap:round;stroke-linejoin:miter;stroke-miterlimit:4;stroke-dasharray:none;stroke-opacity:1" />
      <path
         inkscape:original-d="m 77.719737,243.44624 -5.30762,-5.30762"
         inkscape:path-effect="#path-effect4374-8-2"
         inkscape:connector-curvature="0"
         id="path4372-7"
         d="m 77.719737,243.44624 -5.30762,-5.30762"
         style="fill:#ffffff;fill-rule:evenodd;stroke:#060606;stroke-width:4;stroke-linecap:round;stroke-linejoin:miter;stroke-miterlimit:4;stroke-dasharray:none;stroke-opacity:1" />
      <path
         style="fill:#ffffff;fill-rule:evenodd;stroke:#060606;stroke-width:4;stroke-linecap:round;stroke-linejoin:miter;stroke-miterlimit:4;stroke-dasharray:none;stroke-opacity:1"
         d="m 28.338597,243.44625 5.30762,-5.30763"
         id="path4807"
         inkscape:connector-curvature="0"
         inkscape:path-effect="#path-effect4809-9"
         inkscape:original-d="m 28.338597,243.44625 5.30762,-5.30763" />
    </g>
    <g
       id="g968"
       transform="matrix(1.9940236,0,0,1.9940236,-21.74671,184.81339)"
       style="fill:#ffffff;fill-opacity:0.62745098">
      <g
         id="g966"
         style="fill:#ffffff;fill-opacity:0.62745098">
        <path
           inkscape:connector-curvature="0"
           d="m 37.5,7.9040995 c -5.108675,0 -9.264917,4.1562415 -9.264917,9.2649165 0,3.520669 2.024384,6.835656 5.095704,8.43756 v 3.606832 c 0,0.51235 0.414142,0.926492 0.926492,0.926492 h 0.463246 5.55895 0.463246 c 0.51235,0 0.926492,-0.414142 0.926492,-0.926492 v -3.606832 c 3.070393,-1.601904 5.095704,-4.917818 5.095704,-8.43756 0,-5.108675 -4.156242,-9.2649165 -9.264917,-9.2649165 z"
           id="path962"
           style="fill:#ffffff;fill-opacity:0.62745098;stroke-width:0.92649168"
           sodipodi:nodetypes="sscssccsscss" />
        <path
           inkscape:connector-curvature="0"
           d="m 37,12.5 c -2.733,0 -4.5,1.767 -4.5,4.5 0,0.553 0.447,1 1,1 0.553,0 1,-0.447 1,-1 0,-1.141 0.434,-2.5 2.5,-2.5 0.553,0 1,-0.447 1,-1 0,-0.553 -0.447,-1 -1,-1 z"
           id="path964"
           style="fill:#ffffff;fill-opacity:0.62745098" />
      </g>
    </g>
    <g
       style="fill:#000000;fill-opacity:1"
       transform="matrix(1.9940236,0,0,1.9940236,-21.74671,184.81339)"
       id="g4347">
      <g
         style="fill:#000000;fill-opacity:1"
         id="g4351">
        <path
           style="fill:#000000;fill-opacity:1"
           id="path4343"
           d="m 37.5,7.022 c -5.514,0 -10,4.486 -10,10 0,3.8 2.185,7.378 5.5,9.107 v 3.893 c 0,0.553 0.447,1 1,1 h 0.5 V 33.5 c 0,0.553 0.447,1 1,1 h 4 c 0.553,0 1,-0.447 1,-1 V 31.022 H 41 c 0.553,0 1,-0.447 1,-1 v -3.893 c 3.314,-1.729 5.5,-5.308 5.5,-9.107 0,-5.514 -4.486,-10 -10,-10 z m 1,25.478 h -2 v -1.478 h 2 z m 2.1,-7.916 C 40.235,24.743 40,25.103 40,25.5 v 3.521 H 39.5 35.5 35 V 25.5 c 0,-0.398 -0.235,-0.757 -0.6,-0.916 -2.886,-1.261 -4.9,-4.371 -4.9,-7.562 0,-4.411 3.589,-8 8,-8 4.411,0 8,3.589 8,8 0,3.191 -2.015,6.301 -4.9,7.562 z"
           inkscape:connector-curvature="0" />
        <path
           style="fill:#000000;fill-opacity:1"
           id="path4345"
           d="m 37,12.5 c -2.733,0 -4.5,1.767 -4.5,4.5 0,0.553 0.447,1 1,1 0.553,0 1,-0.447 1,-1 0,-1.141 0.434,-2.5 2.5,-2.5 0.553,0 1,-0.447 1,-1 0,-0.553 -0.447,-1 -1,-1 z"
           inkscape:connector-curvature="0" />
      </g>
    </g>
  </g>
</svg>
