<?xml version="1.0" encoding="UTF-8" standalone="no"?>
<!-- Created with Inkscape (http://www.inkscape.org/) -->

<svg
   xmlns:dc="http://purl.org/dc/elements/1.1/"
   xmlns:cc="http://creativecommons.org/ns#"
   xmlns:rdf="http://www.w3.org/1999/02/22-rdf-syntax-ns#"
   xmlns:svg="http://www.w3.org/2000/svg"
   xmlns="http://www.w3.org/2000/svg"
   xmlns:sodipodi="http://sodipodi.sourceforge.net/DTD/sodipodi-0.dtd"
   xmlns:inkscape="http://www.inkscape.org/namespaces/inkscape"
   width="105mm"
   height="148mm"
   viewBox="0 0 105 148"
   version="1.1"
   id="svg8"
   inkscape:version="0.92.3 (2405546, 2018-03-11)"
   sodipodi:docname="cover-back-en.svg">
  <defs
     id="defs2">
    <inkscape:path-effect
       is_visible="true"
       id="path-effect4364"
       effect="spiro" />
    <inkscape:path-effect
       effect="spiro"
       id="path-effect4885"
       is_visible="true" />
    <inkscape:path-effect
       is_visible="true"
       id="path-effect4809"
       effect="spiro" />
    <inkscape:path-effect
       is_visible="true"
       id="path-effect4390"
       effect="spiro" />
    <inkscape:path-effect
       effect="spiro"
       id="path-effect4374"
       is_visible="true" />
    <inkscape:path-effect
       is_visible="true"
       id="path-effect4333"
       effect="spiro" />
    <inkscape:path-effect
       effect="spiro"
       id="path-effect4327"
       is_visible="true" />
    <inkscape:path-effect
       effect="spiro"
       id="path-effect4323"
       is_visible="true" />
    <inkscape:path-effect
       is_visible="true"
       id="path-effect4390-6"
       effect="spiro" />
    <inkscape:path-effect
       is_visible="true"
       id="path-effect4390-5"
       effect="spiro" />
    <inkscape:path-effect
       is_visible="true"
       id="path-effect4390-56"
       effect="spiro" />
    <inkscape:path-effect
       is_visible="true"
       id="path-effect4390-56-9"
       effect="spiro" />
    <inkscape:path-effect
       is_visible="true"
       id="path-effect4390-5-2"
       effect="spiro" />
    <inkscape:path-effect
       effect="spiro"
       id="path-effect4374-0"
       is_visible="true" />
    <inkscape:path-effect
       effect="spiro"
       id="path-effect4374-3"
       is_visible="true" />
    <inkscape:path-effect
       effect="spiro"
       id="path-effect4374-06"
       is_visible="true" />
    <inkscape:path-effect
       effect="spiro"
       id="path-effect4374-6"
       is_visible="true" />
    <inkscape:path-effect
       effect="spiro"
       id="path-effect4374-8"
       is_visible="true" />
    <inkscape:path-effect
       effect="spiro"
       id="path-effect4374-9"
       is_visible="true" />
    <inkscape:path-effect
       effect="spiro"
       id="path-effect4374-2"
       is_visible="true" />
    <inkscape:path-effect
       effect="spiro"
       id="path-effect4374-7"
       is_visible="true" />
    <inkscape:path-effect
       effect="spiro"
       id="path-effect4374-6-9"
       is_visible="true" />
    <inkscape:path-effect
       effect="spiro"
       id="path-effect4374-6-2"
       is_visible="true" />
    <inkscape:path-effect
       effect="spiro"
       id="path-effect4374-6-97"
       is_visible="true" />
    <inkscape:path-effect
       effect="spiro"
       id="path-effect4374-8-6"
       is_visible="true" />
    <inkscape:path-effect
       effect="spiro"
       id="path-effect4374-6-29"
       is_visible="true" />
    <inkscape:path-effect
       effect="spiro"
       id="path-effect4374-94"
       is_visible="true" />
    <inkscape:path-effect
       effect="spiro"
       id="path-effect4374-0-7"
       is_visible="true" />
    <inkscape:path-effect
       effect="spiro"
       id="path-effect4374-3-8"
       is_visible="true" />
    <inkscape:path-effect
       effect="spiro"
       id="path-effect4374-06-4"
       is_visible="true" />
    <inkscape:path-effect
       effect="spiro"
       id="path-effect4374-6-5"
       is_visible="true" />
    <inkscape:path-effect
       effect="spiro"
       id="path-effect4374-8-0"
       is_visible="true" />
    <inkscape:path-effect
       effect="spiro"
       id="path-effect4374-2-3"
       is_visible="true" />
    <inkscape:path-effect
       effect="spiro"
       id="path-effect4374-7-6"
       is_visible="true" />
    <inkscape:path-effect
       effect="spiro"
       id="path-effect4374-6-9-1"
       is_visible="true" />
    <inkscape:path-effect
       effect="spiro"
       id="path-effect4374-6-2-0"
       is_visible="true" />
    <inkscape:path-effect
       effect="spiro"
       id="path-effect4374-6-97-6"
       is_visible="true" />
    <inkscape:path-effect
       effect="spiro"
       id="path-effect4374-8-6-3"
       is_visible="true" />
    <inkscape:path-effect
       effect="spiro"
       id="path-effect4374-6-29-2"
       is_visible="true" />
    <inkscape:path-effect
       effect="spiro"
       id="path-effect4374-4"
       is_visible="true" />
    <inkscape:path-effect
       effect="spiro"
       id="path-effect4374-0-4"
       is_visible="true" />
    <inkscape:path-effect
       effect="spiro"
       id="path-effect4374-3-3"
       is_visible="true" />
    <inkscape:path-effect
       effect="spiro"
       id="path-effect4374-06-0"
       is_visible="true" />
    <inkscape:path-effect
       effect="spiro"
       id="path-effect4374-6-7"
       is_visible="true" />
    <inkscape:path-effect
       effect="spiro"
       id="path-effect4374-8-8"
       is_visible="true" />
    <inkscape:path-effect
       is_visible="true"
       id="path-effect4809-6"
       effect="spiro" />
    <clipPath
       id="clipPath898"
       clipPathUnits="userSpaceOnUse">
      <path
         inkscape:connector-curvature="0"
         id="path896"
         d="M 0,77.453 H 100.528 V 0 H 0 Z" />
    </clipPath>
    <clipPath
       id="clipPath951"
       clipPathUnits="userSpaceOnUse">
      <path
         inkscape:connector-curvature="0"
         id="path949"
         d="M 0,82.67 H 107.358 V 0 H 0 Z" />
    </clipPath>
    <inkscape:path-effect
       effect="spiro"
       id="path-effect4374-67"
       is_visible="true" />
    <inkscape:path-effect
       effect="spiro"
       id="path-effect4374-0-5"
       is_visible="true" />
    <inkscape:path-effect
       effect="spiro"
       id="path-effect4374-3-3-1"
       is_visible="true" />
    <inkscape:path-effect
       effect="spiro"
       id="path-effect4374-06-5"
       is_visible="true" />
    <inkscape:path-effect
       effect="spiro"
       id="path-effect4374-6-6"
       is_visible="true" />
    <inkscape:path-effect
       effect="spiro"
       id="path-effect4374-8-2"
       is_visible="true" />
    <inkscape:path-effect
       is_visible="true"
       id="path-effect4809-9"
       effect="spiro" />
    <clipPath
       id="clipPath1037"
       clipPathUnits="userSpaceOnUse">
      <path
         inkscape:connector-curvature="0"
         id="path1035"
         d="M 0,107.643 H 311.249 V 0 H 0 Z" />
    </clipPath>
    <clipPath
       id="clipPath912"
       clipPathUnits="userSpaceOnUse">
      <path
         inkscape:connector-curvature="0"
         id="path910"
         d="M 0,52.716 H 180 V 0 H 0 Z" />
    </clipPath>
    <clipPath
       id="clipPath984"
       clipPathUnits="userSpaceOnUse">
      <path
         inkscape:connector-curvature="0"
         id="path982"
         d="M 0,82.67 H 180 V 0 H 0 Z" />
    </clipPath>
  </defs>
  <sodipodi:namedview
     id="base"
     pagecolor="#ffffff"
     bordercolor="#666666"
     borderopacity="1.0"
     inkscape:pageopacity="0.0"
     inkscape:pageshadow="2"
     inkscape:zoom="2.4296244"
     inkscape:cx="13.640641"
     inkscape:cy="33.17031"
     inkscape:document-units="mm"
     inkscape:current-layer="layer1"
     inkscape:document-rotation="0"
     showgrid="false"
     showguides="true"
     inkscape:guide-bbox="true"
     inkscape:snap-page="true"
     inkscape:snap-bbox="true"
     inkscape:bbox-paths="false"
     inkscape:bbox-nodes="false"
     inkscape:snap-bbox-edge-midpoints="false"
     inkscape:snap-bbox-midpoints="false"
     inkscape:object-paths="true"
     inkscape:snap-intersection-paths="true"
     inkscape:snap-smooth-nodes="true"
     inkscape:snap-midpoints="true"
     inkscape:snap-object-midpoints="true"
     inkscape:snap-center="true"
     inkscape:window-width="1920"
     inkscape:window-height="1016"
     inkscape:window-x="0"
     inkscape:window-y="27"
     inkscape:window-maximized="1" />
  <metadata
     id="metadata5">
    <rdf:RDF>
      <cc:Work
         rdf:about="">
        <dc:format>image/svg+xml</dc:format>
        <dc:type
           rdf:resource="http://purl.org/dc/dcmitype/StillImage" />
        <dc:title />
      </cc:Work>
    </rdf:RDF>
  </metadata>
  <g
     inkscape:label="Layer 1"
     inkscape:groupmode="layer"
     id="layer1"
     transform="translate(0,-149)">
    <flowRoot
       xml:space="preserve"
       id="flowRoot6550"
       style="fill:none;stroke:black;stroke-opacity:1;stroke-width:1px;stroke-linejoin:miter;stroke-linecap:butt;font-family:muni;font-size:26.66666667px;line-height:100%;letter-spacing:0px;word-spacing:0px;-inkscape-font-specification:'muni Bold';text-anchor:start;text-align:start;font-weight:bold;font-style:normal;font-stretch:normal;font-variant:normal"><flowRegion
         id="flowRegion6552"><rect
           id="rect6554"
           width="223.90292"
           height="193.44554"
           x="-80.670906"
           y="-37.429985" /></flowRegion><flowPara
         id="flowPara6556" /></flowRoot>    <rect
       y="148.99998"
       x="-6.9038088e-06"
       height="148"
       width="104.99999"
       id="rect6440"
       style="opacity:1;vector-effect:none;fill:#ffe333;fill-opacity:1;stroke:none;stroke-width:1;stroke-linecap:butt;stroke-linejoin:miter;stroke-miterlimit:4;stroke-dasharray:none;stroke-dashoffset:0;stroke-opacity:1" />
    <path
       inkscape:connector-curvature="0"
       id="path6442"
       style="fill:none;stroke:#f0cf00;stroke-width:0.26458299px;stroke-opacity:1"
       d="M 0.06614,149.06614 V 297.06615 M 2.71197,149.06614 V 297.06615 M 5.35781,149.06614 V 297.06615 M 8.003641,149.06614 V 297.06615 M 10.64947,149.06614 V 297.06615 M 13.29531,149.06614 V 297.06615 M 15.94114,149.06614 V 297.06615 M 18.58697,149.06614 V 297.06615 M 21.23281,149.06614 V 297.06615 M 23.87864,149.06614 V 297.06615 M 26.524469,149.06614 V 297.06615 M 29.17031,149.06614 V 297.06615 M 31.816141,149.06614 V 297.06615 M 34.461972,149.06614 V 297.06615 M 37.10781,149.06614 V 297.06615 M 39.753641,149.06614 V 297.06615 M 42.399472,149.06614 V 297.06615 M 45.04531,149.06614 V 297.06615 M 47.691141,149.06614 V 297.06615 M 50.336972,149.06614 V 297.06615 M 52.98281,149.06614 V 297.06615 M 55.628641,149.06614 V 297.06615 M 58.274472,149.06614 V 297.06615 M 60.92031,149.06614 V 297.06615 M 63.566141,149.06614 V 297.06615 M 66.211972,149.06614 V 297.06615 M 68.85781,149.06614 V 297.06615 M 71.503641,149.06614 V 297.06615 M 74.149472,149.06614 V 297.06615 M 76.79531,149.06614 V 297.06615 M 79.441141,149.06614 V 297.06615 M 82.086972,149.06614 V 297.06615 M 84.73281,149.06614 V 297.06615 M 87.378641,149.06614 V 297.06615 M 90.024472,149.06614 V 297.06615 M 92.67031,149.06614 v 148.00001 m 2.645831,-148.00001 v 148.00001 m 2.645831,-148.00001 v 148.00001 m 2.645838,-148.00001 v 148.00001 m 2.64585,-148.00001 V 297.06615 M 0.06614,149.06614 H 105.06615 M 0.06614,151.71197 H 105.06615 M 0.06614,154.35781 H 105.06615 M 0.06614,157.00364 H 105.06615 M 0.06614,159.64947 H 105.06615 M 0.06614,162.29532 H 105.06615 M 0.06614,164.94115 H 105.06615 M 0.06614,167.58698 H 105.06615 M 0.06614,170.23282 H 105.06615 M 0.06614,172.87865 H 105.06615 M 0.06614,175.52446 H 105.06615 M 0.06614,178.17032 H 105.06615 M 0.06614,180.81615 H 105.06615 M 0.06614,183.46197 H 105.06615 M 0.06614,186.10782 H 105.06615 M 0.06614,188.75365 H 105.06615 M 0.06614,191.39947 H 105.06615 M 0.06614,194.04532 H 105.06615 M 0.06614,196.69115 H 105.06615 M 0.06614,199.33697 H 105.06615 M 0.06614,201.98282 H 105.06615 M 0.06614,204.62865 H 105.06615 M 0.06614,207.27447 H 105.06615 M 0.06614,209.92032 H 105.06615 M 0.06614,212.56615 H 105.06615 M 0.06614,215.21197 H 105.06615 M 0.06614,217.85782 H 105.06615 M 0.06614,220.50365 H 105.06615 M 0.06614,223.14947 H 105.06615 M 0.06614,225.79532 H 105.06615 M 0.06614,228.44115 H 105.06615 M 0.06614,231.08697 H 105.06615 M 0.06614,233.73282 H 105.06615 M 0.06614,236.37865 H 105.06615 M 0.06614,239.02448 H 105.06615 M 0.06614,241.67032 H 105.06615 M 0.06614,244.31615 H 105.06615 M 0.06614,246.96198 H 105.06615 M 0.06614,249.60781 H 105.06615 M 0.06614,252.25365 H 105.06615 M 0.06614,254.89948 H 105.06615 M 0.06614,257.54531 H 105.06615 M 0.06614,260.19115 H 105.06615 M 0.06614,262.83698 H 105.06615 M 0.06614,265.48281 H 105.06615 M 0.06614,268.12865 H 105.06615 M 0.06614,270.77448 H 105.06615 M 0.06614,273.42031 H 105.06615 M 0.06614,276.06615 H 105.06615 M 0.06614,278.71198 H 105.06615 M 0.06614,281.35781 H 105.06615 M 0.06614,284.00365 H 105.06615 M 0.06614,286.64948 H 105.06615 M 0.06614,289.29531 H 105.06615 M 0.06614,291.94115 H 105.06615 M 0.06614,294.58698 h 105.00001" />
    <path
       inkscape:connector-curvature="0"
       id="path6444"
       style="fill:none;stroke:#f0cf00;stroke-width:0.79374999px;stroke-opacity:1"
       d="M 0.19843,149.19843 V 297.19844 M 13.4276,149.19843 V 297.19844 M 26.656771,149.19843 V 297.19844 M 39.88593,149.19843 V 297.19844 M 53.115099,149.19843 V 297.19844 M 66.344271,149.19843 V 297.19844 M 79.57343,149.19843 V 297.19844 M 92.802602,149.19843 V 297.19844 M 0.19843,149.19843 H 105.19844 M 0.19843,162.4276 H 105.19844 M 0.19843,175.65677 H 105.19844 M 0.19843,188.88593 H 105.19844 M 0.19843,202.11509 H 105.19844 M 0.19843,215.34427 H 105.19844 M 0.19843,228.57343 H 105.19844 M 0.19843,241.8026 H 105.19844 M 0.19843,255.03177 H 105.19844 M 0.19843,268.26093 H 105.19844 M 0.19843,281.4901 H 105.19844 M 0.19843,294.71927 h 105.00001" />
    <g
       id="g1130">
      <path
         inkscape:connector-curvature="0"
         id="path1029"
         style="fill:#000000;fill-opacity:1;fill-rule:nonzero;stroke:none;stroke-width:0.24960589"
         d="M 8.3843963,251.20953 H 9.2080958 V 256.451 H 8.3843963 Z m -0.3067656,0 H 8.3544436 L 7.8454972,256.451 H 7.5684347 Z m -1.3254073,0 H 7.0290363 L 7.5384819,256.451 H 7.2614194 Z m -0.8464136,0 H 6.7222707 V 256.451 H 5.9058098 Z" />
      <path
         d="m 12.300863,251.20953 v 4.00593 c 0,0.2843 0.254848,0.48673 0.49422,0.48673 0.239621,0 0.494219,-0.20243 0.494219,-0.48673 v -4.00593 h 0.8237 v 4.03588 c 0,0.70389 -0.636495,1.25052 -1.317919,1.25052 -0.681424,0 -1.317919,-0.54663 -1.317919,-1.25052 v -4.03588 z"
         style="fill:#000000;fill-opacity:1;fill-rule:nonzero;stroke:none;stroke-width:0.24960589"
         id="path1041"
         inkscape:connector-curvature="0" />
      <path
         inkscape:connector-curvature="0"
         id="path1043"
         style="fill:#000000;fill-opacity:1;fill-rule:nonzero;stroke:none;stroke-width:0.24960589"
         d="M 19.422219,256.451 H 18.59827 v -5.24147 h 0.823949 z m -1.632423,-5.24147 0.778771,5.24147 h -0.284801 l -0.77852,-5.24147 z m -0.314503,5.24147 h -0.8237 v -5.24147 h 0.8237 z" />
      <path
         d="m 22.859142,256.15899 v -4.6574 h -0.703639 v -0.29204 h 2.238715 v 0.29204 h -0.711377 v 4.6574 h 0.711377 v 0.29204 h -2.238715 v -0.29204 z"
         style="fill:#000000;fill-opacity:1;fill-rule:nonzero;stroke:none;stroke-width:0.24960589"
         id="path1047"
         inkscape:connector-curvature="0" />
      <path
         d="m 6.4451083,258.69771 h 2.4935629 v 0.37441 H 6.8494699 v 2.17881 h 1.9993432 v 0.37441 H 6.8494699 v 2.31384 H 6.4451083 Z"
         style="fill:#000000;fill-opacity:1;fill-rule:nonzero;stroke:none;stroke-width:0.24960589"
         id="path1051"
         inkscape:connector-curvature="0" />
      <path
         d="m 12.780081,258.69771 -0.688912,3.21218 h 1.392801 l -0.673936,-3.21218 h 0.404361 l 1.115739,5.24147 h -0.419338 l -0.359433,-1.65488 h -1.527338 l -0.351945,1.65488 h -0.419587 l 1.130715,-5.24147 z"
         style="fill:#000000;fill-opacity:1;fill-rule:nonzero;stroke:none;stroke-width:0.24960589"
         id="path1055"
         inkscape:connector-curvature="0" />
      <path
         d="m 16.793769,262.73356 v -2.83053 c 0,-0.71887 0.584078,-1.25053 1.295455,-1.25053 0.718865,0 1.295454,0.53166 1.295454,1.25053 v 0.19469 h -0.404361 v -0.1872 c 0,-0.48673 -0.426826,-0.86838 -0.891093,-0.86838 -0.478994,0 -0.891093,0.38165 -0.891093,0.86838 v 2.81555 c 0,0.48673 0.412099,0.86863 0.891093,0.86863 0.464267,0 0.891093,-0.3819 0.891093,-0.86863 v -0.17223 h 0.404361 v 0.17972 c 0,0.74133 -0.576589,1.25053 -1.295454,1.25053 -0.711377,0 -1.295455,-0.5092 -1.295455,-1.25053"
         style="fill:#000000;fill-opacity:1;fill-rule:nonzero;stroke:none;stroke-width:0.24960589"
         id="path1059"
         inkscape:connector-curvature="0" />
      <path
         d="m 22.387462,258.69771 v 4.02839 c 0,0.48673 0.41185,0.86863 0.891093,0.86863 0.464267,0 0.891093,-0.3819 0.891093,-0.86863 v -4.02839 h 0.404362 v 4.03588 c 0,0.74133 -0.57659,1.25052 -1.295455,1.25052 -0.718865,0 -1.295455,-0.50919 -1.295455,-1.25052 v -4.03588 z"
         style="fill:#000000;fill-opacity:1;fill-rule:nonzero;stroke:none;stroke-width:0.24960589"
         id="path1063"
         inkscape:connector-curvature="0" />
      <path
         d="m 27.81639,258.69771 v 4.86707 h 2.238965 v 0.3744 h -2.643327 v -5.24147 z"
         style="fill:#000000;fill-opacity:1;fill-rule:nonzero;stroke:none;stroke-width:0.24960589"
         id="path1067"
         inkscape:connector-curvature="0" />
      <path
         d="m 32.159633,259.07211 v -0.37441 h 3.20469 v 0.37441 h -1.400289 v 4.86707 h -0.404362 v -4.86707 z"
         style="fill:#000000;fill-opacity:1;fill-rule:nonzero;stroke:none;stroke-width:0.24960589"
         id="path1071"
         inkscape:connector-curvature="0" />
      <path
         d="m 37.513505,258.69771 h 0.434065 l 1.048344,2.39622 1.063322,-2.39622 h 0.426826 l -1.287967,2.92763 v 2.31384 h -0.396873 v -2.31384 z"
         style="fill:#000000;fill-opacity:1;fill-rule:nonzero;stroke:none;stroke-width:0.24960589"
         id="path1075"
         inkscape:connector-curvature="0" />
      <path
         d="m 7.5534833,266.53029 c -0.4792433,0 -0.8910931,0.33697 -0.8910931,0.86838 v 2.81555 c 0,0.53166 0.4118498,0.86863 0.8910931,0.86863 0.4640174,0 0.8908435,-0.33697 0.8908435,-0.86863 v -2.81555 c 0,-0.53141 -0.4268261,-0.86838 -0.8908435,-0.86838 m 0,-0.38963 c 0.718865,0 1.295205,0.52442 1.295205,1.25052 v 2.83053 c 0,0.74133 -0.57634,1.25053 -1.295205,1.25053 -0.718865,0 -1.2954546,-0.5092 -1.2954546,-1.25053 v -2.83053 c 0,-0.7261 0.5765896,-1.25052 1.2954546,-1.25052"
         style="fill:#000000;fill-opacity:1;fill-rule:nonzero;stroke:none;stroke-width:0.24960589"
         id="path1079"
         inkscape:connector-curvature="0" />
      <path
         d="m 11.686832,266.18588 h 2.493563 v 0.37441 h -2.089201 v 2.17881 h 1.999343 v 0.37441 h -1.999343 v 2.31384 h -0.404362 z"
         style="fill:#000000;fill-opacity:1;fill-rule:nonzero;stroke:none;stroke-width:0.24960589"
         id="path1083"
         inkscape:connector-curvature="0" />
      <path
         d="m 23.076324,271.16532 v -4.7173 h -0.913558 v -0.26209 h 2.231477 v 0.26209 h -0.913557 v 4.7173 h 0.913557 v 0.26209 h -2.231477 v -0.26209 z"
         style="fill:#000000;fill-opacity:1;fill-rule:nonzero;stroke:none;stroke-width:0.24960589"
         id="path1087"
         inkscape:connector-curvature="0" />
      <path
         inkscape:connector-curvature="0"
         id="path1089"
         style="fill:#000000;fill-opacity:1;fill-rule:nonzero;stroke:none;stroke-width:0.24960589"
         d="m 29.905667,271.42736 h -0.404362 v -5.24148 h 0.404362 z m -2.059249,-5.24148 1.624934,5.24148 h -0.292039 l -1.609958,-5.24148 z m -0.307265,5.24148 h -0.404112 v -5.24148 h 0.404112 z" />
      <path
         d="m 32.653728,266.18588 h 2.493563 v 0.37441 H 33.05809 v 2.17881 h 1.999343 v 0.37441 H 33.05809 v 2.31384 h -0.404362 z"
         style="fill:#000000;fill-opacity:1;fill-rule:nonzero;stroke:none;stroke-width:0.24960589"
         id="path1093"
         inkscape:connector-curvature="0" />
      <path
         d="m 39.003577,266.53029 c -0.479243,0 -0.891093,0.33697 -0.891093,0.86838 v 2.81555 c 0,0.53166 0.41185,0.86863 0.891093,0.86863 0.464017,0 0.890843,-0.33697 0.890843,-0.86863 v -2.81555 c 0,-0.53141 -0.426826,-0.86838 -0.890843,-0.86838 m 0,-0.38963 c 0.718865,0 1.295205,0.52442 1.295205,1.25052 v 2.83053 c 0,0.74133 -0.57634,1.25053 -1.295205,1.25053 -0.718865,0 -1.295455,-0.5092 -1.295455,-1.25053 v -2.83053 c 0,-0.7261 0.57659,-1.25052 1.295455,-1.25052"
         style="fill:#000000;fill-opacity:1;fill-rule:nonzero;stroke:none;stroke-width:0.24960589"
         id="path1097"
         inkscape:connector-curvature="0" />
      <path
         d="m 45.285883,267.91555 v -0.472 c 0,-0.49397 -0.4116,-0.88336 -0.890843,-0.88336 h -0.921046 v 2.26867 h 0.921046 c 0.501458,0 0.890843,-0.37441 0.890843,-0.91331 m -0.853403,-1.72977 c 0.681425,0 1.250526,0.5691 1.250526,1.25053 v 0.52417 c 0,0.63624 -0.486732,1.15318 -1.100762,1.2056 l 1.280478,2.26118 h -0.464516 l -1.242788,-2.2165 h -0.681424 v 2.2165 h -0.404362 v -5.24148 z"
         style="fill:#000000;fill-opacity:1;fill-rule:nonzero;stroke:none;stroke-width:0.24960589"
         id="path1101"
         inkscape:connector-curvature="0" />
      <path
         inkscape:connector-curvature="0"
         id="path1103"
         style="fill:#000000;fill-opacity:1;fill-rule:nonzero;stroke:none;stroke-width:0.24960589"
         d="m 50.67762,266.18588 h 0.404362 v 5.24148 H 50.67762 Z m -0.292039,0 h 0.261837 l -0.883605,5.24148 h -0.261837 z m -2.066986,0 h 0.269574 l 0.883855,5.24148 H 49.2022 Z m -0.426826,0 h 0.397123 v 5.24148 h -0.397123 z" />
      <path
         d="m 54.713623,266.18588 -0.688912,3.21218 h 1.392801 l -0.673936,-3.21218 h 0.404361 l 1.115739,5.24147 h -0.419338 l -0.359433,-1.65488 h -1.527338 l -0.351945,1.65488 h -0.419338 l 1.130466,-5.24147 z"
         style="fill:#000000;fill-opacity:1;fill-rule:nonzero;stroke:none;stroke-width:0.24960589"
         id="path1107"
         inkscape:connector-curvature="0" />
      <path
         d="m 58.368028,266.56029 v -0.37441 h 3.20469 v 0.37441 h -1.400289 v 4.86707 h -0.404362 v -4.86707 z"
         style="fill:#000000;fill-opacity:1;fill-rule:nonzero;stroke:none;stroke-width:0.24960589"
         id="path1111"
         inkscape:connector-curvature="0" />
      <path
         d="m 65.009866,271.16532 v -4.7173 h -0.913558 v -0.26209 h 2.231477 v 0.26209 h -0.913557 v 4.7173 h 0.913557 v 0.26209 h -2.231477 v -0.26209 z"
         style="fill:#000000;fill-opacity:1;fill-rule:nonzero;stroke:none;stroke-width:0.24960589"
         id="path1115"
         inkscape:connector-curvature="0" />
      <path
         d="m 69.210758,270.22174 v -2.83053 c 0,-0.71887 0.584078,-1.25053 1.295455,-1.25053 0.718865,0 1.295454,0.53166 1.295454,1.25053 v 0.19469 h -0.404361 v -0.1872 c 0,-0.48673 -0.426826,-0.86838 -0.891093,-0.86838 -0.478994,0 -0.891093,0.38165 -0.891093,0.86838 v 2.81555 c 0,0.48673 0.412099,0.86863 0.891093,0.86863 0.464267,0 0.891093,-0.3819 0.891093,-0.86863 v -0.17223 h 0.404361 v 0.17972 c 0,0.74133 -0.576589,1.25053 -1.295454,1.25053 -0.711377,0 -1.295455,-0.5092 -1.295455,-1.25053"
         style="fill:#000000;fill-opacity:1;fill-rule:nonzero;stroke:none;stroke-width:0.24960589"
         id="path1119"
         inkscape:connector-curvature="0" />
      <path
         d="m 74.400065,270.22174 v -0.17972 h 0.404362 v 0.17223 c 0,0.48673 0.426826,0.86863 0.898581,0.86863 0.464267,0 0.883605,-0.3819 0.883605,-0.86863 v -0.30701 c 0,-0.62152 -0.509196,-0.7935 -0.98844,-0.89834 -0.456778,-0.10483 -1.198108,-0.38214 -1.198108,-1.25801 v -0.35968 c 0,-0.71887 0.576839,-1.25053 1.295455,-1.25053 0.718865,0 1.295454,0.53166 1.295454,1.25053 v 0.19469 h -0.404361 v -0.1872 c 0,-0.48673 -0.426826,-0.86838 -0.891093,-0.86838 -0.471756,0 -0.891093,0.38165 -0.891093,0.86838 v 0.35219 c 0,0.61403 0.516684,0.78601 0.973463,0.89084 0.494219,0.11233 1.213084,0.40437 1.213084,1.25802 v 0.32199 c 0,0.74133 -0.576589,1.25053 -1.295454,1.25053 -0.718616,0 -1.295455,-0.5092 -1.295455,-1.25053"
         style="fill:#000000;fill-opacity:1;fill-rule:nonzero;stroke:none;stroke-width:0.24960589"
         id="path1123"
         inkscape:connector-curvature="0" />
    </g>
    <text
       xml:space="preserve"
       style="font-style:normal;font-variant:normal;font-weight:bold;font-stretch:normal;font-size:2.96179605px;line-height:100%;font-family:'Open Sans';-inkscape-font-specification:'Open Sans Bold';text-align:start;letter-spacing:0px;word-spacing:0px;text-anchor:start;fill:#000000;fill-opacity:1;stroke:#000000;stroke-width:0.11106735px;stroke-linecap:butt;stroke-linejoin:miter;stroke-opacity:1"
       x="5.7303243"
       y="277.07834"
       id="text1176"><tspan
         sodipodi:role="line"
         id="tspan1174"
         x="5.7303243"
         y="277.07834"
         style="font-style:normal;font-variant:normal;font-weight:normal;font-stretch:normal;font-family:'Neue Haas Unica Pro';-inkscape-font-specification:'Neue Haas Unica Pro';fill:#000000;fill-opacity:1;stroke:none;stroke-width:0.11106735px">in cooperation with</tspan></text>
    <g
       id="g1174">
      <path
         inkscape:connector-curvature="0"
         id="path976"
         style="fill:#000000;fill-opacity:1;fill-rule:nonzero;stroke:none;stroke-width:0.23171982"
         d="m 8.3599563,278.75666 h 0.8156532 v 5.19006 H 8.3599563 Z m -0.3040168,0 h 0.2743563 l -0.504222,5.19029 H 7.5517175 Z m -1.3124609,0 h 0.2745882 l 0.5039902,5.19029 H 7.2477007 Z m -0.8376673,0 h 0.8082388 v 5.19006 H 5.9058113 Z" />
      <path
         d="m 12.238111,278.75673 v 3.96681 c 0,0.28177 0.252111,0.48198 0.489393,0.48198 0.237281,0 0.489392,-0.20021 0.489392,-0.48198 v -3.96681 h 0.815422 v 3.99647 c 0,0.69678 -0.630278,1.23808 -1.304814,1.23808 -0.674768,0 -1.305047,-0.5413 -1.305047,-1.23808 v -3.99647 z"
         style="fill:#000000;fill-opacity:1;fill-rule:nonzero;stroke:none;stroke-width:0.23171982"
         id="path988"
         inkscape:connector-curvature="0" />
      <path
         inkscape:connector-curvature="0"
         id="path990"
         style="fill:#000000;fill-opacity:1;fill-rule:nonzero;stroke:none;stroke-width:0.23171982"
         d="m 19.289716,283.94695 h -0.815653 v -5.19006 h 0.815653 z m -1.616477,-5.19029 0.771163,5.19029 h -0.281771 l -0.771163,-5.19029 z m -0.311432,5.19029 h -0.815653 v -5.19006 h 0.815653 z" />
      <path
         d="m 22.693217,283.65769 v -4.61168 h -0.697014 v -0.28919 h 2.217096 v 0.28919 h -0.704428 v 4.61168 h 0.704428 v 0.28919 h -2.217096 v -0.28919 z"
         style="fill:#000000;fill-opacity:1;fill-rule:nonzero;stroke:none;stroke-width:0.23171982"
         id="path994"
         inkscape:connector-curvature="0" />
      <path
         d="m 28.939456,280.51771 v 0.37955 h -1.454969 v -2.14479 h 0.442817 v 1.76524 z"
         style="fill:#000000;fill-opacity:1;fill-rule:nonzero;stroke:none;stroke-width:0.23171982"
         id="path998"
         inkscape:connector-curvature="0" />
      <path
         d="m 30.023951,280.19536 c -0.09037,0.006 -0.21689,0.0181 -0.30726,0.0332 -0.174717,0.0302 -0.247013,0.0874 -0.247013,0.21086 0,0.11448 0.07832,0.1928 0.225926,0.1928 0.08736,0 0.180742,-0.0271 0.240989,-0.0874 0.0723,-0.0723 0.08736,-0.15363 0.08736,-0.2922 z m 0.406668,-0.27111 v 0.55427 c 0,0.1928 0.01506,0.3163 0.04218,0.41872 h -0.379557 c -0.01506,-0.0633 -0.02108,-0.12953 -0.02108,-0.20484 h -0.006 c -0.11447,0.16267 -0.286175,0.24099 -0.49704,0.24099 -0.325334,0 -0.521137,-0.19882 -0.521137,-0.4639 0,-0.25003 0.150618,-0.41872 0.593434,-0.488 0.114469,-0.0181 0.286174,-0.0361 0.382569,-0.0422 v -0.0543 c 0,-0.19279 -0.10242,-0.27111 -0.250025,-0.27111 -0.156643,0 -0.247013,0.0874 -0.253039,0.23195 h -0.40968 c 0.01483,-0.2922 0.225927,-0.52716 0.662719,-0.52716 0.433779,0 0.656694,0.20484 0.656694,0.60548"
         style="fill:#000000;fill-opacity:1;fill-rule:nonzero;stroke:none;stroke-width:0.23171982"
         id="path1002"
         inkscape:connector-curvature="0" />
      <path
         d="m 32.235022,279.95741 v 0.93985 h -0.42173 v -0.89768 c 0,-0.23195 -0.10242,-0.33739 -0.2681,-0.33739 -0.174717,0 -0.301236,0.13857 -0.301236,0.41571 v 0.81936 h -0.42173 v -1.53028 h 0.394388 v 0.19279 h 0.0062 c 0.09941,-0.13555 0.253037,-0.22893 0.448841,-0.22893 0.343409,0 0.563311,0.21086 0.563311,0.62657"
         style="fill:#000000;fill-opacity:1;fill-rule:nonzero;stroke:none;stroke-width:0.23171982"
         id="path1006"
         inkscape:connector-curvature="0" />
      <path
         d="m 32.969898,280.102 c 0,0.26509 0.120494,0.43076 0.30726,0.43076 0.198816,0 0.325335,-0.1717 0.325335,-0.43076 0,-0.25907 -0.126519,-0.43077 -0.325335,-0.43077 -0.186766,0 -0.30726,0.16568 -0.30726,0.43077 m 0.62657,-0.53018 h 0.006 v -0.20484 H 34.0001 v 1.43389 c 0,0.4639 -0.286175,0.68079 -0.725979,0.68079 -0.421729,0 -0.653681,-0.18677 -0.67778,-0.488 h 0.42173 c 0.009,0.11748 0.105433,0.18676 0.265088,0.18676 0.189778,0 0.30726,-0.0964 0.30726,-0.39462 v -0.13556 h -0.006 c -0.11447,0.15966 -0.244001,0.22895 -0.427755,0.22895 -0.382569,0 -0.62657,-0.30124 -0.62657,-0.77719 0,-0.47596 0.247013,-0.77719 0.632595,-0.77719 0.186766,0 0.316298,0.0723 0.433779,0.24701"
         style="fill:#000000;fill-opacity:1;fill-rule:nonzero;stroke:none;stroke-width:0.23171982"
         id="path1010"
         inkscape:connector-curvature="0" />
      <path
         d="m 34.39472,280.30679 v -0.93985 h 0.421731 v 0.89768 c 0,0.23195 0.102419,0.33739 0.268099,0.33739 0.174717,0 0.301236,-0.13857 0.301236,-0.41571 v -0.81936 h 0.42173 v 1.53028 h -0.394387 v -0.19279 h -0.0062 c -0.09941,0.13555 -0.253038,0.22893 -0.448841,0.22893 -0.343409,0 -0.563311,-0.21086 -0.563311,-0.62657"
         style="fill:#000000;fill-opacity:1;fill-rule:nonzero;stroke:none;stroke-width:0.23171982"
         id="path1014"
         inkscape:connector-curvature="0" />
      <path
         d="m 37.066751,280.19536 c -0.09037,0.006 -0.21689,0.0181 -0.30726,0.0332 -0.174717,0.0302 -0.247014,0.0874 -0.247014,0.21086 0,0.11448 0.07832,0.1928 0.225927,0.1928 0.08736,0 0.180742,-0.0271 0.240989,-0.0874 0.0723,-0.0723 0.08736,-0.15363 0.08736,-0.2922 z m 0.406668,-0.27111 v 0.55427 c 0,0.1928 0.01506,0.3163 0.04218,0.41872 h -0.379557 c -0.01506,-0.0633 -0.02108,-0.12953 -0.02108,-0.20484 h -0.006 c -0.11447,0.16267 -0.286174,0.24099 -0.497039,0.24099 -0.325335,0 -0.521138,-0.19882 -0.521138,-0.4639 0,-0.25003 0.150618,-0.41872 0.593435,-0.488 0.114469,-0.0181 0.286173,-0.0361 0.382569,-0.0422 v -0.0543 c 0,-0.19279 -0.10242,-0.27111 -0.250025,-0.27111 -0.156643,0 -0.247014,0.0874 -0.253039,0.23195 h -0.40968 c 0.01483,-0.2922 0.225927,-0.52716 0.662719,-0.52716 0.433779,0 0.656693,0.20484 0.656693,0.60548"
         style="fill:#000000;fill-opacity:1;fill-rule:nonzero;stroke:none;stroke-width:0.23171982"
         id="path1018"
         inkscape:connector-curvature="0" />
      <path
         d="m 38.205306,280.102 c 0,0.26509 0.120494,0.43076 0.30726,0.43076 0.199047,0 0.325335,-0.1717 0.325335,-0.43076 0,-0.25907 -0.126288,-0.43077 -0.325335,-0.43077 -0.186766,0 -0.30726,0.16568 -0.30726,0.43077 m 0.62657,-0.53018 h 0.006 v -0.20484 h 0.397864 v 1.43389 c 0,0.4639 -0.286407,0.68079 -0.726211,0.68079 -0.421729,0 -0.653681,-0.18677 -0.67778,-0.488 h 0.42173 c 0.009,0.11748 0.105433,0.18676 0.265088,0.18676 0.189778,0 0.30726,-0.0964 0.30726,-0.39462 v -0.13556 h -0.006 c -0.11447,0.15966 -0.244001,0.22895 -0.427755,0.22895 -0.382569,0 -0.62657,-0.30124 -0.62657,-0.77719 0,-0.47596 0.247013,-0.77719 0.632595,-0.77719 0.186766,0 0.316298,0.0723 0.433779,0.24701"
         style="fill:#000000;fill-opacity:1;fill-rule:nonzero;stroke:none;stroke-width:0.23171982"
         id="path1022"
         inkscape:connector-curvature="0" />
      <path
         d="m 39.97071,279.95434 h 0.668743 c -0.02688,-0.23195 -0.165679,-0.33738 -0.334372,-0.33738 -0.171704,0 -0.301236,0.10543 -0.334371,0.33738 m 0.63862,0.47897 h 0.430766 c -0.06025,0.28015 -0.325334,0.5121 -0.732003,0.5121 -0.481976,0 -0.762126,-0.33738 -0.762126,-0.82538 0,-0.45186 0.28015,-0.80129 0.759114,-0.80129 0.352446,0 0.611509,0.19881 0.707904,0.50908 0.03337,0.10544 0.0482,0.22292 0.0482,0.39161 h -1.09951 c 0.01205,0.3163 0.16568,0.42776 0.346421,0.42776 0.168924,0 0.280149,-0.0904 0.301236,-0.21388"
         style="fill:#000000;fill-opacity:1;fill-rule:nonzero;stroke:none;stroke-width:0.23171982"
         id="path1026"
         inkscape:connector-curvature="0" />
      <path
         d="m 29.219605,282.97227 h -0.445828 c -0.02711,-0.25003 -0.192792,-0.40065 -0.442817,-0.40065 -0.325335,0 -0.52415,0.27714 -0.52415,0.72899 0,0.45487 0.195803,0.72899 0.515113,0.72899 0.253038,0 0.418717,-0.1476 0.451854,-0.40968 h 0.454865 c -0.04218,0.50909 -0.382569,0.80129 -0.906719,0.80129 -0.602471,0 -0.972992,-0.42474 -0.972992,-1.1206 0,-0.69284 0.373533,-1.1206 0.982029,-1.1206 0.530175,0 0.867559,0.32534 0.888645,0.79226"
         style="fill:#000000;fill-opacity:1;fill-rule:nonzero;stroke:none;stroke-width:0.23171982"
         id="path1030"
         inkscape:connector-curvature="0" />
      <path
         d="m 29.879243,283.43014 h 0.668743 c -0.02711,-0.23195 -0.165679,-0.33738 -0.334372,-0.33738 -0.171704,0 -0.301236,0.10543 -0.334371,0.33738 m 0.63862,0.47897 h 0.430766 c -0.06025,0.28015 -0.325334,0.5121 -0.732003,0.5121 -0.481976,0 -0.762126,-0.33738 -0.762126,-0.82538 0,-0.45186 0.28015,-0.80129 0.759114,-0.80129 0.352446,0 0.611509,0.19881 0.707904,0.50908 0.03314,0.10544 0.0482,0.22292 0.0482,0.39161 h -1.09951 c 0.01205,0.3163 0.16568,0.42776 0.346421,0.42776 0.168692,0 0.280149,-0.0904 0.301236,-0.21388"
         style="fill:#000000;fill-opacity:1;fill-rule:nonzero;stroke:none;stroke-width:0.23171982"
         id="path1034"
         inkscape:connector-curvature="0" />
      <path
         d="m 32.692923,283.43321 v 0.93985 h -0.42173 v -0.89768 c 0,-0.23195 -0.10242,-0.33739 -0.268331,-0.33739 -0.174485,0 -0.301005,0.13857 -0.301005,0.41571 v 0.81936 h -0.421961 v -1.53028 h 0.394619 v 0.19279 h 0.0062 c 0.09941,-0.13555 0.253038,-0.22893 0.448841,-0.22893 0.343409,0 0.563311,0.21086 0.563311,0.62657"
         style="fill:#000000;fill-opacity:1;fill-rule:nonzero;stroke:none;stroke-width:0.23171982"
         id="path1038"
         inkscape:connector-curvature="0" />
      <path
         d="m 33.882758,284.0417 v 0.32232 c -0.05724,0.0181 -0.150618,0.0301 -0.222914,0.0301 -0.352446,0 -0.506076,-0.14158 -0.506076,-0.49704 v -0.74104 h -0.247014 v -0.31328 h 0.247014 v -0.39764 h 0.42173 v 0.39764 h 0.292198 v 0.31328 h -0.292198 v 0.66573 c 0,0.1687 0.05422,0.23497 0.198815,0.23497 0.03916,0 0.08133,-0.006 0.108445,-0.015"
         style="fill:#000000;fill-opacity:1;fill-rule:nonzero;stroke:none;stroke-width:0.23171982"
         id="path1042"
         inkscape:connector-curvature="0" />
      <path
         d="m 35.114674,282.83671 v 0.3645 c -0.0482,-0.009 -0.09037,-0.015 -0.132544,-0.015 -0.259063,0 -0.397632,0.16266 -0.397632,0.4639 v 0.72297 h -0.421729 v -1.53028 h 0.388594 v 0.21689 h 0.006 c 0.10242,-0.16568 0.237976,-0.24099 0.418718,-0.24099 0.04218,0 0.0964,0.006 0.138568,0.0181"
         style="fill:#000000;fill-opacity:1;fill-rule:nonzero;stroke:none;stroke-width:0.23171982"
         id="path1046"
         inkscape:connector-curvature="0" />
      <path
         d="m 35.668948,283.43014 h 0.668743 c -0.02711,-0.23195 -0.165679,-0.33738 -0.334372,-0.33738 -0.171704,0 -0.301235,0.10543 -0.334371,0.33738 m 0.63862,0.47897 h 0.430766 c -0.06025,0.28015 -0.325334,0.5121 -0.732002,0.5121 -0.481977,0 -0.762127,-0.33738 -0.762127,-0.82538 0,-0.45186 0.28015,-0.80129 0.759114,-0.80129 0.352446,0 0.611509,0.19881 0.707904,0.50908 0.03314,0.10544 0.0482,0.22292 0.0482,0.39161 h -1.09951 c 0.01205,0.3163 0.16568,0.42776 0.346421,0.42776 0.168692,0 0.28015,-0.0904 0.301236,-0.21388"
         style="fill:#000000;fill-opacity:1;fill-rule:nonzero;stroke:none;stroke-width:0.23171982"
         id="path1050"
         inkscape:connector-curvature="0" />
      <path
         d="m 6.3061535,290.16823 v -2.80288 c 0,-0.71161 0.5783724,-1.23808 1.2828011,-1.23808 0.7116112,0 1.2825692,0.52647 1.2825692,1.23808 v 0.19279 H 8.4711119 v -0.18515 c 0,-0.48221 -0.4224253,-0.86014 -0.8821573,-0.86014 -0.4745623,0 -0.8823893,0.37793 -0.8823893,0.86014 v 2.78782 c 0,0.48198 0.407827,0.86015 0.8823893,0.86015 0.459732,0 0.8821573,-0.37817 0.8821573,-0.86015 v -0.17078 h 0.4004119 v 0.1782 c 0,0.73409 -0.570958,1.23831 -1.2825692,1.23831 -0.7044287,0 -1.2828011,-0.50422 -1.2828011,-1.23831"
         style="fill:#000000;fill-opacity:1;fill-rule:nonzero;stroke:none;stroke-width:0.23171982"
         id="path1054"
         inkscape:connector-curvature="0" />
      <path
         d="m 11.630055,290.00508 v 0.15571 c 0,0.48198 0.385582,0.86015 0.860144,0.86015 0.452317,0 0.852729,-0.37817 0.852729,-0.86015 v -3.98905 h 0.400412 v 3.99647 c 0,0.69701 -0.578373,1.23831 -1.253141,1.23831 -0.674768,0 -1.260555,-0.5413 -1.260555,-1.23831 v -0.16313 z"
         style="fill:#000000;fill-opacity:1;fill-rule:nonzero;stroke:none;stroke-width:0.23171982"
         id="path1058"
         inkscape:connector-curvature="0" />
      <path
         d="m 19.430463,286.17176 -1.112024,5.19007 h -0.393228 l 1.09001,-5.19007 z m -2.60986,0 1.074948,5.19007 h -0.392765 l -1.10484,-5.19007 z"
         style="fill:#000000;fill-opacity:1;fill-rule:nonzero;stroke:none;stroke-width:0.23171982"
         id="path1062"
         inkscape:connector-curvature="0" />
    </g>
  </g>
</svg>
