<svg xmlns="http://www.w3.org/2000/svg" xmlns:xlink="http://www.w3.org/1999/xlink" version="1.1" x="0px" y="0px" viewBox="0 0 47.5 56" style="enable-background:new 0 0 47.5 56;" xml:space="preserve"><g><path d="M41,36.5c-0.553,0-1,0.447-1,1V39H5c-1.13,0-2.162,0.391-3,1.026V5c0-1.654,1.346-3,3-3h35v2c0,0.553,0.447,1,1,1   c0.553,0,1-0.447,1-1V1c0-0.553-0.447-1-1-1H5C2.243,0,0,2.243,0,5v39v3c0,2.757,2.243,5,5,5h14.5c0.553,0,1-0.447,1-1   s-0.447-1-1-1H5c-1.654,0-3-1.346-3-3v-3c0-1.654,1.346-3,3-3h35v3v3c0,1.654-1.346,3-3,3c-0.553,0-1,0.447-1,1s0.447,1,1,1   c2.757,0,5-2.243,5-5v-3v-4v-2.5C42,36.947,41.553,36.5,41,36.5z"></path><path d="M23.5,9c0.553,0,1-0.447,1-1s-0.447-1-1-1h-15c-0.553,0-1,0.447-1,1v10c0,0.553,0.447,1,1,1h15c0.553,0,1-0.447,1-1   s-0.447-1-1-1h-14V9H23.5z"></path><path d="M35,42.5H7c-0.553,0-1,0.447-1,1s0.447,1,1,1h16V55c0,0.356,0.189,0.686,0.498,0.865c0.308,0.178,0.688,0.181,0.998,0.003   l3.004-1.717l3.004,1.717C30.657,55.956,30.829,56,31,56c0.174,0,0.347-0.045,0.502-0.135C31.81,55.686,32,55.356,32,55V44.5h3   c0.553,0,1-0.447,1-1S35.553,42.5,35,42.5z M30,53.276l-2.004-1.145c-0.307-0.176-0.686-0.176-0.992,0L25,53.276V44.5h5V53.276z"></path><path d="M7,46.5c-0.553,0-1,0.447-1,1s0.447,1,1,1h12.5c0.553,0,1-0.447,1-1s-0.447-1-1-1H7z"></path><path d="M37.5,7.022c-5.514,0-10,4.486-10,10c0,3.8,2.185,7.378,5.5,9.107v3.893c0,0.553,0.447,1,1,1h0.5V33.5c0,0.553,0.447,1,1,1   h4c0.553,0,1-0.447,1-1v-2.478H41c0.553,0,1-0.447,1-1v-3.893c3.314-1.729,5.5-5.308,5.5-9.107   C47.5,11.508,43.014,7.022,37.5,7.022z M38.5,32.5h-2v-1.478h2V32.5z M40.6,24.584C40.235,24.743,40,25.103,40,25.5v3.521h-0.5h-4   H35V25.5c0-0.398-0.235-0.757-0.6-0.916c-2.886-1.261-4.9-4.371-4.9-7.562c0-4.411,3.589-8,8-8c4.411,0,8,3.589,8,8   C45.5,20.213,43.485,23.323,40.6,24.584z"></path><path d="M37,12.5c-2.733,0-4.5,1.767-4.5,4.5c0,0.553,0.447,1,1,1c0.553,0,1-0.447,1-1c0-1.141,0.434-2.5,2.5-2.5   c0.553,0,1-0.447,1-1S37.553,12.5,37,12.5z"></path></g></svg>