<?xml version="1.0" encoding="UTF-8" standalone="no"?>
<!-- Created with Inkscape (http://www.inkscape.org/) -->

<svg
   xmlns:dc="http://purl.org/dc/elements/1.1/"
   xmlns:cc="http://creativecommons.org/ns#"
   xmlns:rdf="http://www.w3.org/1999/02/22-rdf-syntax-ns#"
   xmlns:svg="http://www.w3.org/2000/svg"
   xmlns="http://www.w3.org/2000/svg"
   xmlns:sodipodi="http://sodipodi.sourceforge.net/DTD/sodipodi-0.dtd"
   xmlns:inkscape="http://www.inkscape.org/namespaces/inkscape"
   version="1.1"
   id="svg2"
   xml:space="preserve"
   width="99"
   height="107"
   viewBox="0 0 98.999998 107"
   sodipodi:docname="muni.svg"
   inkscape:version="0.92.3 (2405546, 2018-03-11)"><metadata
     id="metadata8"><rdf:RDF><cc:Work
         rdf:about=""><dc:format>image/svg+xml</dc:format><dc:type
           rdf:resource="http://purl.org/dc/dcmitype/StillImage" /><dc:title></dc:title></cc:Work></rdf:RDF></metadata><defs
     id="defs6"><clipPath
       clipPathUnits="userSpaceOnUse"
       id="clipPath20"><path
         d="M 0,77.453 H 100.528 V 0 H 0 Z"
         id="path18"
         inkscape:connector-curvature="0" /></clipPath><clipPath
       id="clipPath863"
       clipPathUnits="userSpaceOnUse"><path
         inkscape:connector-curvature="0"
         id="path861"
         d="M 0,82.67 H 107.358 V 0 H 0 Z" /></clipPath></defs><sodipodi:namedview
     pagecolor="#ffffff"
     bordercolor="#666666"
     borderopacity="1"
     objecttolerance="10"
     gridtolerance="10"
     guidetolerance="10"
     inkscape:pageopacity="0"
     inkscape:pageshadow="2"
     inkscape:window-width="1920"
     inkscape:window-height="1136"
     id="namedview4"
     showgrid="false"
     inkscape:zoom="4.5705079"
     inkscape:cx="51.275195"
     inkscape:cy="45.712099"
     inkscape:window-x="1920"
     inkscape:window-y="27"
     inkscape:window-maximized="1"
     inkscape:current-layer="g10" /><g
     id="g10"
     inkscape:groupmode="layer"
     inkscape:label="inf-lg-cze-black"
     transform="matrix(1.3333333,0,0,-1.3333333,0,107)"><g
       id="g968"
       transform="translate(-13.133299,15.674557)"><path
         inkscape:connector-curvature="0"
         id="path12"
         style="fill:#231f20;fill-opacity:1;fill-rule:nonzero;stroke:none"
         d="m 23.153,64.224 h 3.3 V 43.225 h -3.3 z m -1.229,0 h 1.109 l -2.04,-20.999 h -1.109 z m -5.311,0 h 1.111 l 2.04,-20.999 h -1.111 z m -3.389,0 h 3.271 V 43.225 h -3.271 z" /><g
         id="g14"><g
           clip-path="url(#clipPath20)"
           id="g16"><g
             transform="translate(38.8428,64.2236)"
             id="g22"><path
               inkscape:connector-curvature="0"
               id="path24"
               style="fill:#231f20;fill-opacity:1;fill-rule:nonzero;stroke:none"
               d="m 0,0 v -16.05 c 0,-1.138 1.021,-1.949 1.98,-1.949 0.96,0 1.98,0.811 1.98,1.949 V 0 h 3.3 v -16.169 c 0,-2.82 -2.55,-5.01 -5.28,-5.01 -2.73,0 -5.28,2.19 -5.28,5.01 L -3.3,0 Z" /></g><path
             inkscape:connector-curvature="0"
             id="path26"
             style="fill:#231f20;fill-opacity:1;fill-rule:nonzero;stroke:none"
             d="m 67.373,43.225 h -3.301 v 20.999 h 3.301 z m -6.54,20.999 3.12,-20.999 h -1.14 l -3.12,20.999 z m -1.26,-20.999 h -3.3 v 20.999 h 3.3 z" /><g
             transform="translate(81.1426,44.3945)"
             id="g28"><path
               inkscape:connector-curvature="0"
               id="path30"
               style="fill:#231f20;fill-opacity:1;fill-rule:nonzero;stroke:none"
               d="m 0,0 v 18.659 h -2.819 v 1.17 H 6.15 v -1.17 H 3.3 V 0 H 6.15 V -1.17 H -2.819 V 0 Z" /></g><g
             transform="translate(15.3838,34.2236)"
             id="g32"><path
               inkscape:connector-curvature="0"
               id="path34"
               style="fill:#231f20;fill-opacity:1;fill-rule:nonzero;stroke:none"
               d="M 0,0 H 9.989 V -1.5 H 1.62 v -8.729 h 8.009 v -1.5 H 1.62 v -9.27 H 0 Z" /></g><g
             transform="translate(40.0127,14.2744)"
             id="g36"><path
               inkscape:connector-curvature="0"
               id="path38"
               style="fill:#231f20;fill-opacity:1;fill-rule:nonzero;stroke:none"
               d="m 0,0 v 18.899 h -3.66 v 1.05 h 8.94 v -1.05 H 1.62 V 0 H 5.28 V -1.05 H -3.66 V 0 Z" /></g></g></g><g
         transform="translate(0,-28.5)"
         id="g947"><g
           id="g875"
           transform="matrix(0.93507777,0,0,0.93507777,14.839534,18.173944)"><path
             d="m 0,0 v 12.096 c 0,3.071 2.496,5.343 5.536,5.343 3.071,0 5.535,-2.272 5.535,-5.343 V 11.264 H 9.343 v 0.799 c 0,2.081 -1.823,3.712 -3.807,3.712 -2.048,0 -3.808,-1.631 -3.808,-3.712 V 0.032 c 0,-2.08 1.76,-3.712 3.808,-3.712 1.984,0 3.807,1.632 3.807,3.712 v 0.737 h 1.728 V 0 c 0,-3.168 -2.464,-5.344 -5.535,-5.344 C 2.496,-5.344 0,-3.168 0,0"
             style="fill:#231f20;fill-opacity:1;fill-rule:nonzero;stroke:none"
             id="path877"
             inkscape:connector-curvature="0" /></g><g
           id="g879"
           transform="matrix(0.93507777,0,0,0.93507777,36.323507,18.832333)"><path
             d="m 0,0 v -0.672 c 0,-2.08 1.664,-3.712 3.712,-3.712 1.952,0 3.68,1.632 3.68,3.712 V 16.543 H 9.12 V -0.704 c 0,-3.008 -2.496,-5.344 -5.408,-5.344 -2.912,0 -5.44,2.336 -5.44,5.344 V 0 Z"
             style="fill:#231f20;fill-opacity:1;fill-rule:nonzero;stroke:none"
             id="path881"
             inkscape:connector-curvature="0" /></g><g
           id="g883"
           transform="matrix(0.93507777,0,0,0.93507777,67.801123,34.301231)"><path
             d="M 0,0 -4.799,-22.398 H -6.496 L -1.792,0 Z m -11.263,0 4.639,-22.398 H -8.319 L -13.087,0 Z"
             style="fill:#231f20;fill-opacity:1;fill-rule:nonzero;stroke:none"
             id="path885"
             inkscape:connector-curvature="0" /></g></g></g></g></svg>