<?xml version="1.0" encoding="UTF-8" standalone="no"?>
<!-- Created with Inkscape (http://www.inkscape.org/) -->

<svg
   xmlns:dc="http://purl.org/dc/elements/1.1/"
   xmlns:cc="http://creativecommons.org/ns#"
   xmlns:rdf="http://www.w3.org/1999/02/22-rdf-syntax-ns#"
   xmlns:svg="http://www.w3.org/2000/svg"
   xmlns="http://www.w3.org/2000/svg"
   xmlns:sodipodi="http://sodipodi.sourceforge.net/DTD/sodipodi-0.dtd"
   xmlns:inkscape="http://www.inkscape.org/namespaces/inkscape"
   width="105mm"
   height="148mm"
   viewBox="0 0 105 148"
   version="1.1"
   id="svg8"
   inkscape:version="0.91 r13725"
   sodipodi:docname="stack-ad-cs.svg"
   inkscape:export-filename="/home/xukrop/Downloads/stack-reklama.png"
   inkscape:export-xdpi="96"
   inkscape:export-ydpi="96">
  <defs
     id="defs2">
    <clipPath
       clipPathUnits="userSpaceOnUse"
       id="clipPath18">
      <path
         d="M 0,566.929 H 566.929 V 0 H 0 Z"
         id="path16"
         inkscape:connector-curvature="0" />
    </clipPath>
  </defs>
  <sodipodi:namedview
     id="base"
     pagecolor="#ffffff"
     bordercolor="#666666"
     borderopacity="1.0"
     inkscape:pageopacity="0.0"
     inkscape:pageshadow="2"
     inkscape:zoom="1.6852558"
     inkscape:cx="86.201125"
     inkscape:cy="301.90913"
     inkscape:document-units="mm"
     inkscape:current-layer="g984"
     showgrid="false"
     units="mm"
     inkscape:snap-bbox="true"
     inkscape:bbox-paths="true"
     inkscape:bbox-nodes="true"
     inkscape:snap-bbox-midpoints="true"
     showguides="true"
     inkscape:guide-bbox="true"
     inkscape:window-width="1680"
     inkscape:window-height="987"
     inkscape:window-x="-8"
     inkscape:window-y="-8"
     inkscape:window-maximized="1">
    <sodipodi:guide
       position="-11.774918,5.0239654"
       orientation="0,1"
       id="guide1006"
       inkscape:locked="false" />
    <sodipodi:guide
       position="-16.013889,11.146923"
       orientation="0,1"
       id="guide1008"
       inkscape:locked="false" />
  </sodipodi:namedview>
  <metadata
     id="metadata5">
    <rdf:RDF>
      <cc:Work
         rdf:about="">
        <dc:format>image/svg+xml</dc:format>
        <dc:type
           rdf:resource="http://purl.org/dc/dcmitype/StillImage" />
        <dc:title />
      </cc:Work>
    </rdf:RDF>
  </metadata>
  <g
     inkscape:label="Layer 1"
     inkscape:groupmode="layer"
     id="layer1"
     transform="translate(0,-148.99998)">
    <g
       style="fill:#000000;fill-opacity:1"
       clip-path="url(#clipPath18)"
       id="g14"
       transform="matrix(0.22287307,0,0,-0.22287307,-10.676581,231.57775)">
      <g
         style="fill:#000000;fill-opacity:1"
         transform="translate(449.7754,233.7778)"
         id="g20">
        <path
           inkscape:connector-curvature="0"
           id="path22"
           style="fill:#000000;fill-opacity:1;fill-rule:nonzero;stroke:none"
           d="m 0,0 2.643,0.076 c 0.127,-1.372 0.559,-2.643 1.931,-2.643 1.246,0 1.653,1.092 1.653,2.109 0,1.067 -0.611,2.033 -1.653,3.076 L 2.668,4.677 c -1.475,1.448 -2.39,2.922 -2.39,4.753 0,2.388 1.45,4.371 4.347,4.371 2.16,0 3.99,-1.144 4.168,-4.702 L 6.277,9.022 c -0.178,1.526 -0.635,2.492 -1.779,2.492 -1.042,0 -1.602,-0.738 -1.602,-1.881 0,-1.043 0.941,-2.009 1.831,-2.975 L 6.48,4.828 C 8.082,3.202 8.971,1.652 8.971,-0.306 8.971,-2.923 7.345,-4.88 4.549,-4.88 1.804,-4.88 0.178,-3.076 0,0 m -9.28,13.496 h 7.929 v -2.39 H -6.459 V 5.972 h 4.093 V 3.559 h -4.093 v -5.745 h 5.135 v -2.44 H -9.28 Z m -5.415,0 h 2.848 V -4.626 h -2.848 z m -8.057,-2.415 h -3.457 v 2.415 h 9.709 v -2.415 h -3.405 V -4.626 h -2.847 z m -8.084,2.415 h 2.847 V -4.626 h -2.847 z m -11.565,0 h 2.82 l 2.237,-12.911 h 0.075 l 2.238,12.911 h 2.567 L -35.92,-4.728 h -2.975 z m -4.451,0 h 2.847 V -4.626 h -2.847 z m -8.057,-2.415 h -3.456 v 2.415 h 9.709 v -2.415 h -3.406 V -4.626 h -2.847 z M -68.788,-0.483 v 9.862 c 0,2.744 2.033,4.396 4.829,4.396 2.617,0 4.473,-1.55 4.473,-4.041 V 7.727 h -2.568 V 9.43 c 0,1.143 -0.685,1.905 -1.905,1.905 -1.372,0 -1.957,-0.864 -1.957,-2.059 v -9.582 c 0,-1.346 0.737,-2.084 1.982,-2.084 1.195,0 1.88,0.788 1.88,1.881 v 1.703 h 2.568 v -1.855 c 0,-2.593 -1.856,-4.219 -4.473,-4.219 -2.847,0 -4.829,1.5 -4.829,4.397 m -5.644,2.898 -1.398,7.904 h -0.076 l -1.449,-7.904 z m -3.202,11.132 h 3.863 l 3.558,-18.173 h -2.847 l -0.915,4.728 h -3.838 l -0.864,-4.728 h -2.643 z m -18.48,-14.005 v 9.811 c 0,2.77 2.034,4.448 4.83,4.448 2.617,0 4.599,-1.526 4.599,-4.016 V 7.854 h -2.591 V 9.53 c 0,1.145 -0.815,1.856 -1.983,1.856 -1.373,0 -1.982,-0.915 -1.982,-2.135 V -0.33 c 0,-1.297 0.711,-2.085 1.982,-2.085 1.372,0 1.88,0.788 1.88,1.881 v 3.278 h -2.134 v 2.187 h 4.855 v -5.643 c 0,-2.567 -1.755,-4.168 -4.601,-4.168 -2.821,0 -4.855,1.526 -4.855,4.422 m -12.1,13.954 h 2.949 l 4.244,-11.234 h 0.05 v 11.234 h 2.517 V -4.626 h -2.592 l -4.6,12.378 h -0.051 V -4.626 h -2.517 z m -5.415,0 h 2.847 V -4.626 h -2.847 z m -12.074,0 h 2.847 v -7.6 h 3.812 v 7.6 h 2.821 V -4.626 h -2.821 v 7.93 h -3.812 v -7.93 h -2.847 z m -11.541,-13.979 v 9.862 c 0,2.744 2.034,4.396 4.83,4.396 2.617,0 4.473,-1.55 4.473,-4.041 V 7.727 h -2.568 V 9.43 c 0,1.143 -0.685,1.905 -1.905,1.905 -1.372,0 -1.957,-0.864 -1.957,-2.059 v -9.582 c 0,-1.346 0.737,-2.084 1.982,-2.084 1.195,0 1.88,0.788 1.88,1.881 v 1.703 h 2.568 v -1.855 c 0,-2.593 -1.856,-4.219 -4.473,-4.219 -2.847,0 -4.83,1.5 -4.83,4.397 m -5.644,2.898 -1.397,7.904 h -0.076 l -1.45,-7.904 z m -3.202,11.132 h 3.863 l 3.559,-18.173 h -2.847 l -0.915,4.728 h -3.839 l -0.863,-4.728 h -2.643 z m -13.116,-0.051 h 7.93 v -2.39 h -5.109 V 5.972 h 4.092 V 3.559 h -4.092 v -5.745 h 5.134 v -2.44 h -7.955 z m -8.058,-2.415 h -3.456 v 2.415 h 9.708 v -2.415 h -3.405 V -4.626 h -2.847 z m -16.472,2.415 h 7.929 v -2.39 h -5.108 V 5.972 h 4.093 V 3.559 h -4.093 v -5.745 h 5.134 v -2.44 h -7.955 z m -11.541,-13.979 v 9.862 c 0,2.744 2.034,4.396 4.83,4.396 2.617,0 4.472,-1.55 4.472,-4.041 V 7.727 h -2.567 V 9.43 c 0,1.143 -0.686,1.905 -1.905,1.905 -1.372,0 -1.957,-0.864 -1.957,-2.059 v -9.582 c 0,-1.346 0.737,-2.084 1.983,-2.084 1.193,0 1.879,0.788 1.879,1.881 v 1.703 h 2.567 v -1.855 c 0,-2.593 -1.855,-4.219 -4.472,-4.219 -2.847,0 -4.83,1.5 -4.83,4.397 m -12.1,13.979 h 2.949 l 4.244,-11.234 h 0.051 v 11.234 h 2.516 V -4.626 h -2.591 l -4.602,12.378 h -0.05 V -4.626 h -2.517 z m -10.117,0 h 7.93 v -2.39 h -5.108 V 5.972 h 4.092 V 3.559 h -4.092 v -5.745 h 5.133 v -2.44 h -7.955 z m -5.414,0 h 2.847 V -4.626 h -2.847 z m -11.54,-13.979 v 9.862 c 0,2.744 2.034,4.396 4.83,4.396 2.617,0 4.472,-1.55 4.472,-4.041 V 7.727 h -2.567 V 9.43 c 0,1.143 -0.686,1.905 -1.905,1.905 -1.373,0 -1.958,-0.864 -1.958,-2.059 v -9.582 c 0,-1.346 0.738,-2.084 1.983,-2.084 1.194,0 1.88,0.788 1.88,1.881 v 1.703 h 2.567 v -1.855 c 0,-2.593 -1.855,-4.219 -4.472,-4.219 -2.847,0 -4.83,1.5 -4.83,4.397 M -245.251,0 l 2.642,0.076 c 0.128,-1.372 0.56,-2.643 1.932,-2.643 1.246,0 1.653,1.092 1.653,2.109 0,1.067 -0.611,2.033 -1.653,3.076 l -1.906,2.059 c -1.475,1.448 -2.39,2.922 -2.39,4.753 0,2.388 1.45,4.371 4.348,4.371 2.159,0 3.99,-1.144 4.167,-4.702 l -2.516,-0.077 c -0.178,1.526 -0.636,2.492 -1.779,2.492 -1.042,0 -1.601,-0.738 -1.601,-1.881 0,-1.043 0.94,-2.009 1.83,-2.975 l 1.753,-1.83 c 1.602,-1.626 2.491,-3.176 2.491,-5.134 0,-2.617 -1.626,-4.574 -4.422,-4.574 -2.745,0 -4.372,1.804 -4.549,4.88 m -10.296,5.058 c 1.246,0 1.932,0.965 1.932,3.024 0,1.754 -0.534,3.024 -1.982,3.024 h -1.526 V 5.058 Z m -4.422,8.438 h 4.601 c 2.948,0 4.6,-1.754 4.6,-5.185 0,-2.593 -0.89,-4.168 -2.288,-4.752 l 2.491,-8.185 h -2.948 l -2.11,7.549 h -1.5 v -7.549 h -2.846 z m -10.117,0 h 7.929 v -2.39 h -5.108 V 5.972 h 4.093 V 3.559 h -4.093 v -5.745 h 5.134 v -2.44 h -7.955 z m -8.059,-2.415 h -3.456 v 2.415 h 9.708 v -2.415 h -3.405 V -4.626 h -2.847 z M -292.71,-0.406 v 13.902 h 2.873 V -0.255 c 0,-1.473 0.863,-2.135 1.93,-2.135 1.297,0 1.907,0.866 1.881,2.11 v 13.776 h 2.719 V -0.28 c 0,-2.922 -2.007,-4.625 -4.777,-4.625 -2.77,0 -4.626,1.423 -4.626,4.499 m -6.94,5.083 c 1.372,0 2.034,1.143 2.034,3.38 0,1.906 -0.509,3.049 -1.932,3.049 h -1.474 V 4.677 Z m -4.219,8.819 h 4.753 c 2.973,0 4.295,-2.033 4.295,-5.389 0,-3.533 -1.373,-5.769 -4.447,-5.769 h -1.754 v -6.964 h -2.847 z m -14.363,0 h 3.533 l 2.364,-7.524 h 0.076 l 2.414,7.524 h 3.381 V -4.626 h -2.516 V 8.921 h -0.051 l -2.338,-7.6 h -1.958 l -2.338,7.6 h -0.05 V -4.626 h -2.517 z m -5.237,-13.802 v 9.659 c 0,1.195 -0.738,1.957 -1.982,1.957 -1.297,0 -1.932,-0.865 -1.932,-2.008 v -9.608 c 0,-1.143 0.635,-2.058 1.957,-2.058 1.347,0 1.957,0.915 1.957,2.058 m -6.812,0.051 v 9.404 c 0,3.025 2.084,4.626 4.855,4.626 2.694,0 4.829,-1.397 4.829,-4.473 v -9.48 c 0,-3.152 -2.135,-4.702 -4.854,-4.702 -2.873,0 -4.83,1.5 -4.83,4.625 m -11.312,-0.228 v 9.862 c 0,2.744 2.034,4.396 4.83,4.396 2.617,0 4.472,-1.55 4.472,-4.041 V 7.727 h -2.566 V 9.43 c 0,1.143 -0.687,1.905 -1.906,1.905 -1.372,0 -1.957,-0.864 -1.957,-2.059 v -9.582 c 0,-1.346 0.737,-2.084 1.983,-2.084 1.193,0 1.88,0.788 1.88,1.881 v 1.703 h 2.566 v -1.855 c 0,-2.593 -1.855,-4.219 -4.472,-4.219 -2.847,0 -4.83,1.5 -4.83,4.397 m 284.688,28.831 h 18.746 v 21.784 l 8.902,10.055 17.805,-31.839 H 8.971 L -16.06,73.069 7.61,103.022 h -19.899 l -25.87,-33.828 v 33.828 h -18.746 z m -40.318,-1.257 c 14.454,0 29.85,7.331 29.85,24.508 v 3.665 h -17.595 v -1.781 c 0,-7.75 -6.388,-11.101 -12.149,-11.101 -7.646,0 -13.197,4.398 -13.197,12.044 v 22.623 c 0,8.483 6.389,11.939 12.987,11.939 5.761,0 12.359,-3.247 12.359,-11.102 v -1.675 h 17.595 v 3.456 c 0,17.281 -15.815,24.612 -30.268,24.612 -16.547,0 -31.42,-9.112 -31.42,-27.44 V 54.007 c 0,-18.643 15.396,-26.916 31.838,-26.916 m -79.899,29.849 8.693,27.021 h 0.314 l 8.589,-27.021 z m -26.917,-28.592 h 17.805 l 4.609,13.929 h 26.706 l 4.504,-13.929 h 19.061 l -26.183,74.779 h -20.004 z m -59.354,14.977 h -78.2 V 28.347 h 78.2 z m 0,19.899 h -52.864 V 48.247 h 52.864 z m -25.335,19.9 h -52.865 V 68.146 h 52.865 z m 25.335,19.898 h -78.2 V 88.045 h 78.2 z m 28.912,-14.977 h -21.156 v 14.977 h 61.06 V 88.045 h -21.156 V 28.348 h -18.748 z" />
      </g>
    </g>
    <path
       inkscape:connector-curvature="0"
       id="path1043"
       d="M 11.914607,291.97601 V 259.70933 H 4.506488 v 32.26668 z"
       style="fill:#787878;fill-opacity:1;fill-rule:nonzero;stroke:none;stroke-width:0.45175278" />
    <path
       inkscape:connector-curvature="0"
       id="path1041"
       d="m 21.756652,291.97601 v -19.3612 h -7.407624 v 19.3612 z"
       style="fill:#787878;fill-opacity:1;fill-rule:nonzero;stroke:none;stroke-width:0.35869977" />
    <path
       inkscape:connector-curvature="0"
       id="path1039"
       d="m 31.599192,291.97601 v -32.26668 h -7.408119 v 32.26668 z"
       style="fill:#787878;fill-opacity:1;fill-rule:nonzero;stroke:none;stroke-width:0.46306202" />
    <path
       inkscape:connector-curvature="0"
       id="path1051"
       d="m 41.440747,291.97601 v -25.87083 h -7.408119 v 25.87083 z"
       style="fill:#787878;fill-opacity:1;fill-rule:nonzero;stroke:none;stroke-width:0.40450963" />
    <path
       inkscape:connector-curvature="0"
       id="path1049"
       d="m 51.282792,283.73638 v -15.83824 h -7.407624 v 15.83824 z"
       style="fill:#787878;fill-opacity:1;fill-rule:nonzero;stroke:none;stroke-width:0.38494658" />
    <path
       inkscape:connector-curvature="0"
       id="path1047"
       d="M 61.125332,283.73638 V 263.9885 h -7.408118 v 19.74788 z"
       style="fill:#787878;fill-opacity:1;fill-rule:nonzero;stroke:none;stroke-width:0.42983639" />
    <path
       style="fill:#787878;fill-opacity:1;fill-rule:nonzero;stroke:none;stroke-width:0.45175278"
       d="m 70.967377,291.97601 v -32.26668 h -7.408119 v 32.26668 z"
       id="path1035"
       inkscape:connector-curvature="0" />
    <path
       style="fill:#787878;fill-opacity:1;fill-rule:nonzero;stroke:none;stroke-width:0.42561144"
       d="M 80.809422,291.97601 V 272.6148 h -7.407624 v 19.36121 z"
       id="path1033"
       inkscape:connector-curvature="0" />
    <path
       style="fill:#787878;fill-opacity:1;fill-rule:nonzero;stroke:none;stroke-width:0.54943985"
       d="m 90.651962,291.97601 v -32.26668 h -7.408118 v 32.26668 z"
       id="path1031"
       inkscape:connector-curvature="0" />
    <path
       style="fill:#787878;fill-opacity:1;fill-rule:nonzero;stroke:none;stroke-width:0.45175278"
       d="m 100.49351,291.97601 v -32.26668 h -7.407621 v 32.26668 z"
       id="path848"
       inkscape:connector-curvature="0" />
    <text
       xml:space="preserve"
       style="font-style:normal;font-variant:normal;font-weight:bold;font-stretch:normal;font-size:7.05555534px;line-height:100%;font-family:'Open Sans';-inkscape-font-specification:'Open Sans Bold';text-align:start;letter-spacing:0px;word-spacing:0px;text-anchor:start;fill:none;stroke:#000000;stroke-width:0.26458332px;stroke-linecap:butt;stroke-linejoin:miter;stroke-opacity:1"
       x="46.504898"
       y="182.07408"
       id="text860"><tspan
         sodipodi:role="line"
         id="tspan858"
         x="46.504898"
         y="187.44371"
         style="stroke-width:0.26458332px" /></text>
    <g
       id="g854"
       transform="translate(13.660572,-36.358028)">
      <text
         id="text868"
         y="286.79138"
         x="18.255348"
         style="font-style:normal;font-variant:normal;font-weight:600;font-stretch:normal;font-size:6.92625999px;line-height:100%;font-family:'Open Sans';-inkscape-font-specification:'Open Sans Semi-Bold';text-align:start;letter-spacing:0px;word-spacing:0px;text-anchor:start;fill:#000000;fill-opacity:1;stroke:none;stroke-width:0.13190374px;stroke-linecap:butt;stroke-linejoin:miter;stroke-opacity:1"
         xml:space="preserve"><tspan
           style="font-style:normal;font-variant:normal;font-weight:600;font-stretch:normal;font-size:6.92625999px;font-family:'Open Sans';-inkscape-font-specification:'Open Sans Semi-Bold';fill:#000000;fill-opacity:1;stroke:none;stroke-width:0.13190374px"
           y="286.79138"
           x="18.255348"
           id="tspan866"
           sodipodi:role="line">stack.fi.muni.cz</tspan></text>
      <g
         style="fill:#000000;fill-opacity:1"
         transform="matrix(0.08414354,0,0,0.08414354,7.6459666,280.42871)"
         data-name="Go to Web"
         id="g937">
        <polygon
           style="fill:#000000;fill-opacity:1"
           points="57.99,44.52 57.99,94.82 70.94,81.89 80.34,100 87.17,96.47 78.12,79.02 95.6,79.02 "
           id="polygon933" />
        <path
           style="fill:#000000;fill-opacity:1"
           inkscape:connector-curvature="0"
           d="m 97.14,45 c 0,-0.47 -0.06,-0.93 -0.1,-1.39 0,-0.24 0,-0.49 -0.06,-0.73 -0.05,-0.59 -0.13,-1.19 -0.2,-1.77 V 40.83 C 96.7,40.21 96.6,39.59 96.49,38.97 v -0.12 0 A 47.22,47.22 0 0 0 54.26,0.2 H 54.17 C 53.52,0.14 52.87,0.09 52.17,0.06 51.47,0.03 50.74,0 50,0 49.26,0 48.52,0 47.79,0.06 47.06,0.12 46.48,0.14 45.79,0.2 H 45.74 A 47.22,47.22 0 0 0 3.56,38.82 v 0 0.12 Q 3.4,39.86 3.27,40.79 v 0.28 c -0.08,0.59 -0.15,1.18 -0.2,1.77 0,0.24 0,0.49 -0.06,0.73 0,0.46 -0.07,0.93 -0.1,1.39 0,0.74 -0.06,1.49 -0.06,2.24 0,0.75 0,1.49 0.06,2.22 0,0.49 0.06,1 0.1,1.46 0,0.22 0,0.44 0.05,0.66 0.06,0.61 0.13,1.22 0.21,1.83 v 0.21 c 0.09,0.66 0.19,1.31 0.31,2 v 0 0 a 47.22,47.22 0 0 0 38,38 v 0 l 0.42,0.14 1.32,0.21 0.97,0.07 1.24,0.14 1.22,0.09 1,0.07 q 1.13,0.06 2.27,0.06 h 0.14 v -11 H 50.02 A 36.25,36.25 0 0 1 43.83,82.82 96.37,96.37 0 0 1 39.97,64.1 c 3.26,0.2 6.61,0.31 10.05,0.31 h 0.14 V 58.19 H 50 c -3.77,0 -7.31,-0.13 -10.63,-0.35 C 39.15,54.52 39,51 39,47.22 c 0,-3.78 0.13,-7.32 0.35,-10.64 3.32,-0.22 6.86,-0.35 10.63,-0.35 3.77,0 7.3,0.13 10.61,0.35 0,0.19 0,0.37 0,0.56 a 7.8,7.8 0 0 1 2.65,1.59 l 3.87,3.55 c -0.05,-1.74 -0.14,-3.44 -0.24,-5.13 a 96.34,96.34 0 0 1 18.79,3.85 36.26,36.26 0 0 1 0.54,6.19 35.88,35.88 0 0 1 -0.55,6.17 c -1.48,0.48 -3.09,1 -4.85,1.39 l 3.7,3.4 v 0 l 8.72,8 A 47.5,47.5 0 0 0 96.43,55.6 v 0 c 0,-0.09 0,-0.18 0,-0.28 0.08,-0.48 0.16,-1 0.23,-1.44 0,-0.26 0.07,-0.52 0.1,-0.78 0.06,-0.46 0.11,-0.92 0.16,-1.39 0.05,-0.47 0.06,-0.72 0.09,-1.08 0.03,-0.36 0.06,-0.75 0.08,-1.12 0,-0.76 0.06,-1.52 0.06,-2.29 0,-0.77 0.03,-1.5 -0.01,-2.22 z M 13.79,47.22 A 36.26,36.26 0 0 1 14.33,41 96.23,96.23 0 0 1 33.05,37.13 c -0.2,3.26 -0.32,6.62 -0.32,10.06 0,3.44 0.11,6.79 0.32,10 A 96.28,96.28 0 0 1 14.33,53.4 36.23,36.23 0 0 1 13.79,47.22 Z m 2.56,13.34 A 114.1,114.1 0 0 0 33.58,63.62 114.28,114.28 0 0 0 36.64,80.85 36.39,36.39 0 0 1 16.35,60.56 Z M 33.59,30.8 A 114.07,114.07 0 0 0 16.36,33.86 36.39,36.39 0 0 1 36.65,13.57 114.28,114.28 0 0 0 33.59,30.8 Z M 50,29.95 c -3.44,0 -6.79,0.11 -10.05,0.31 a 96.43,96.43 0 0 1 3.86,-18.72 35.69,35.69 0 0 1 12.36,0 A 96.47,96.47 0 0 1 60,30.26 C 56.78,30.06 53.43,29.95 50,29.95 Z M 66.4,30.8 A 114.46,114.46 0 0 0 63.35,13.57 36.39,36.39 0 0 1 83.65,33.87 114.53,114.53 0 0 0 66.4,30.8 Z"
           id="path935" />
      </g>
    </g>
    <flowRoot
       xml:space="preserve"
       id="flowRoot969"
       style="font-style:normal;font-variant:normal;font-weight:bold;font-stretch:normal;font-size:26.66666603px;line-height:100%;font-family:'Open Sans';-inkscape-font-specification:'Open Sans Bold';text-align:start;letter-spacing:0px;word-spacing:0px;text-anchor:start;fill:none;stroke:#000000;stroke-width:1px;stroke-linecap:butt;stroke-linejoin:miter;stroke-opacity:1"><flowRegion
         id="flowRegion971"><rect
           id="rect973"
           width="1113.1881"
           height="460.62955"
           x="-16.162441"
           y="712.30444" /></flowRegion><flowPara
         id="flowPara975" /></flowRoot>    <flowRoot
       xml:space="preserve"
       id="flowRoot873"
       style="font-style:normal;font-variant:normal;font-weight:normal;font-stretch:normal;font-size:26.66666603px;line-height:100%;font-family:'Open Sans';-inkscape-font-specification:'Open Sans';text-align:start;letter-spacing:0px;word-spacing:0px;text-anchor:start;fill:#040404;fill-opacity:1;stroke:none;stroke-width:1px;stroke-linecap:butt;stroke-linejoin:miter;stroke-opacity:1"
       transform="matrix(0.26458333,0,0,0.26458333,14.396988,165.53142)"><flowRegion
         id="flowRegion875"
         style="font-style:normal;font-variant:normal;font-weight:normal;font-stretch:normal;font-family:'Open Sans';-inkscape-font-specification:'Open Sans';fill:#040404;fill-opacity:1;stroke:none"><rect
           id="rect877"
           width="341.13171"
           height="98.712166"
           x="-28.531727"
           y="70.134865"
           style="font-style:normal;font-variant:normal;font-weight:normal;font-stretch:normal;font-family:'Open Sans';-inkscape-font-specification:'Open Sans';fill:#040404;fill-opacity:1;stroke:none" /></flowRegion><flowPara
         style="font-style:normal;font-variant:normal;font-weight:normal;font-stretch:normal;font-size:13.33333397px;line-height:0%;font-family:'Open Sans';-inkscape-font-specification:'Open Sans';text-align:center;text-anchor:middle;fill:#040404;fill-opacity:1;stroke:none"
         id="flowPara1560">.</flowPara><flowPara
         style="font-style:normal;font-variant:normal;font-weight:normal;font-stretch:normal;font-size:13.33333397px;line-height:20.0000003%;font-family:'Open Sans';-inkscape-font-specification:'Open Sans';text-align:center;text-anchor:middle;fill:#040404;fill-opacity:1;stroke:none"
         id="flowPara889" /></flowRoot>    <text
       xml:space="preserve"
       style="font-style:normal;font-variant:normal;font-weight:bold;font-stretch:normal;font-size:7.05555534px;line-height:100%;font-family:muni;-inkscape-font-specification:'muni Bold';text-align:start;letter-spacing:0px;word-spacing:0px;text-anchor:start;fill:#040404;fill-opacity:1;stroke:none;stroke-width:0.26458332px;stroke-linecap:butt;stroke-linejoin:miter;stroke-opacity:1"
       x="213.43675"
       y="221.54424"
       id="text893"><tspan
         sodipodi:role="line"
         id="tspan891"
         x="213.43675"
         y="226.83591"
         style="font-style:normal;font-variant:normal;font-weight:normal;font-stretch:normal;font-size:3.52777767px;font-family:'Open Sans';-inkscape-font-specification:'Open Sans';text-align:center;text-anchor:middle;fill:#040404;fill-opacity:1;stroke:none;stroke-width:0.26458332px" /></text>
    <flowRoot
       xml:space="preserve"
       id="flowRoot1420"
       style="fill:none;stroke:black;stroke-opacity:1;stroke-width:1px;stroke-linejoin:miter;stroke-linecap:butt;font-family:muni;font-size:26.66666667px;line-height:100%;letter-spacing:0px;word-spacing:0px;-inkscape-font-specification:'muni Bold';text-anchor:start;text-align:start;font-weight:bold;font-style:normal;font-stretch:normal;font-variant:normal"><flowRegion
         id="flowRegion1422"><rect
           id="rect1424"
           width="67.645515"
           height="36.196285"
           x="214.80418"
           y="319.05048" /></flowRegion><flowPara
         id="flowPara1426" /></flowRoot>    <g
       id="g984"
       transform="translate(-0.35839008,-12.437937)">
      <flowRoot
         xml:space="preserve"
         id="flowRoot1628"
         style="font-style:normal;font-variant:normal;font-weight:normal;font-stretch:normal;font-size:26.66666603px;line-height:100%;font-family:'Open Sans';-inkscape-font-specification:'Open Sans';text-align:start;letter-spacing:0px;word-spacing:0px;text-anchor:start;fill:#040404;fill-opacity:1;stroke:none;stroke-width:1px;stroke-linecap:butt;stroke-linejoin:miter;stroke-opacity:1"
         transform="matrix(0.26458333,0,0,0.26458333,14.77691,205.90419)"><flowRegion
           id="flowRegion1608"
           style="font-style:normal;font-variant:normal;font-weight:normal;font-stretch:normal;font-family:'Open Sans';-inkscape-font-specification:'Open Sans';fill:#040404;fill-opacity:1;stroke:none"><rect
             id="rect1606"
             width="345.32758"
             height="398.29532"
             x="-28.531727"
             y="70.134865"
             style="font-style:normal;font-variant:normal;font-weight:normal;font-stretch:normal;font-family:'Open Sans';-inkscape-font-specification:'Open Sans';fill:#040404;fill-opacity:1;stroke:none" /></flowRegion><flowPara
           style="font-style:normal;font-variant:normal;font-weight:normal;font-stretch:normal;font-size:13.33333397px;line-height:0%;font-family:'Open Sans';-inkscape-font-specification:'Open Sans';text-align:center;text-anchor:middle;fill:#040404;fill-opacity:1;stroke:none"
           id="flowPara1626">výukových aktivit, které vysvětlují a trénují různé</flowPara></flowRoot>      <flowRoot
         transform="matrix(0.26458333,0,0,0.26458333,14.59174,211.1134)"
         style="font-style:normal;font-variant:normal;font-weight:normal;font-stretch:normal;font-size:26.66666603px;line-height:100%;font-family:'Open Sans';-inkscape-font-specification:'Open Sans';text-align:start;letter-spacing:0px;word-spacing:0px;text-anchor:start;fill:#040404;fill-opacity:1;stroke:none;stroke-width:1px;stroke-linecap:butt;stroke-linejoin:miter;stroke-opacity:1"
         id="flowRoot1655"
         xml:space="preserve"><flowRegion
           style="font-style:normal;font-variant:normal;font-weight:normal;font-stretch:normal;font-family:'Open Sans';-inkscape-font-specification:'Open Sans';fill:#040404;fill-opacity:1;stroke:none"
           id="flowRegion1641"><rect
             style="font-style:normal;font-variant:normal;font-weight:normal;font-stretch:normal;font-family:'Open Sans';-inkscape-font-specification:'Open Sans';fill:#040404;fill-opacity:1;stroke:none"
             y="70.134865"
             x="-28.531727"
             height="398.29532"
             width="345.32758"
             id="rect1639" /></flowRegion><flowPara
           id="flowPara1651"
           style="font-style:normal;font-variant:normal;font-weight:normal;font-stretch:normal;font-size:13.33333397px;line-height:0%;font-family:'Open Sans';-inkscape-font-specification:'Open Sans';text-align:center;text-anchor:middle;fill:#040404;fill-opacity:1;stroke:none">informatické koncepty. Každá aktivita v Stacku</flowPara><flowPara
           id="flowPara1653"
           style="font-style:normal;font-variant:normal;font-weight:normal;font-stretch:normal;font-size:13.33333397px;line-height:20.0000003%;font-family:'Open Sans';-inkscape-font-specification:'Open Sans';text-align:center;text-anchor:middle;fill:#040404;fill-opacity:1;stroke:none" /></flowRoot>      <flowRoot
         xml:space="preserve"
         id="flowRoot904"
         style="font-style:normal;font-variant:normal;font-weight:normal;font-stretch:normal;font-size:26.66666603px;line-height:100%;font-family:'Open Sans';-inkscape-font-specification:'Open Sans';text-align:start;letter-spacing:0px;word-spacing:0px;text-anchor:start;fill:#040404;fill-opacity:1;stroke:none;stroke-width:1px;stroke-linecap:butt;stroke-linejoin:miter;stroke-opacity:1"
         transform="matrix(0.26458333,0,0,0.26458333,14.81825,216.34155)"><flowRegion
           id="flowRegion890"
           style="font-style:normal;font-variant:normal;font-weight:normal;font-stretch:normal;font-family:'Open Sans';-inkscape-font-specification:'Open Sans';fill:#040404;fill-opacity:1;stroke:none"><rect
             id="rect888"
             width="345.32758"
             height="398.29532"
             x="-28.531727"
             y="70.134865"
             style="font-style:normal;font-variant:normal;font-weight:normal;font-stretch:normal;font-family:'Open Sans';-inkscape-font-specification:'Open Sans';fill:#040404;fill-opacity:1;stroke:none" /></flowRegion><flowPara
           style="font-style:normal;font-variant:normal;font-weight:normal;font-stretch:normal;font-size:13.33333397px;line-height:20.0000003%;font-family:'Open Sans';-inkscape-font-specification:'Open Sans';text-align:center;text-anchor:middle;fill:#040404;fill-opacity:1;stroke:none"
           id="flowPara900"><flowSpan
             style="line-height:0%"
             id="flowSpan892">obsahuje podrobný popis, podklady pro tisk</flowSpan></flowPara><flowPara
           style="font-style:normal;font-variant:normal;font-weight:normal;font-stretch:normal;font-size:13.33333397px;line-height:20.0000003%;font-family:'Open Sans';-inkscape-font-specification:'Open Sans';text-align:center;text-anchor:middle;fill:#040404;fill-opacity:1;stroke:none"
           id="flowPara902" /></flowRoot>      <flowRoot
         transform="matrix(0.26458333,0,0,0.26458333,14.73384,221.56022)"
         style="font-style:normal;font-variant:normal;font-weight:normal;font-stretch:normal;font-size:26.66666603px;line-height:100%;font-family:'Open Sans';-inkscape-font-specification:'Open Sans';text-align:start;letter-spacing:0px;word-spacing:0px;text-anchor:start;fill:#040404;fill-opacity:1;stroke:none;stroke-width:1px;stroke-linecap:butt;stroke-linejoin:miter;stroke-opacity:1"
         id="flowRoot922"
         xml:space="preserve"><flowRegion
           style="font-style:normal;font-variant:normal;font-weight:normal;font-stretch:normal;font-family:'Open Sans';-inkscape-font-specification:'Open Sans';fill:#040404;fill-opacity:1;stroke:none"
           id="flowRegion908"><rect
             style="font-style:normal;font-variant:normal;font-weight:normal;font-stretch:normal;font-family:'Open Sans';-inkscape-font-specification:'Open Sans';fill:#040404;fill-opacity:1;stroke:none"
             y="70.134865"
             x="-28.531727"
             height="398.29532"
             width="345.32758"
             id="rect906" /></flowRegion><flowPara
           id="flowPara920"
           style="font-style:normal;font-variant:normal;font-weight:normal;font-stretch:normal;font-size:13.33333397px;line-height:20.0000003%;font-family:'Open Sans';-inkscape-font-specification:'Open Sans';text-align:center;text-anchor:middle;fill:#040404;fill-opacity:1;stroke:none">a další materiály pro učitele, umožňující snadné</flowPara></flowRoot>      <flowRoot
         xml:space="preserve"
         id="flowRoot940"
         style="font-style:normal;font-variant:normal;font-weight:normal;font-stretch:normal;font-size:26.66666603px;line-height:100%;font-family:'Open Sans';-inkscape-font-specification:'Open Sans';text-align:start;letter-spacing:0px;word-spacing:0px;text-anchor:start;fill:#040404;fill-opacity:1;stroke:none;stroke-width:1px;stroke-linecap:butt;stroke-linejoin:miter;stroke-opacity:1"
         transform="matrix(0.26458333,0,0,0.26458333,14.71403,227.17767)"><flowRegion
           id="flowRegion926"
           style="font-style:normal;font-variant:normal;font-weight:normal;font-stretch:normal;font-family:'Open Sans';-inkscape-font-specification:'Open Sans';fill:#040404;fill-opacity:1;stroke:none"><rect
             id="rect924"
             width="345.32758"
             height="398.29532"
             x="-28.531727"
             y="70.134865"
             style="font-style:normal;font-variant:normal;font-weight:normal;font-stretch:normal;font-family:'Open Sans';-inkscape-font-specification:'Open Sans';fill:#040404;fill-opacity:1;stroke:none" /></flowRegion><flowPara
           style="font-style:normal;font-variant:normal;font-weight:normal;font-stretch:normal;font-size:13.33333397px;line-height:20.0000003%;font-family:'Open Sans';-inkscape-font-specification:'Open Sans';text-align:center;text-anchor:middle;fill:#040404;fill-opacity:1;stroke:none"
           id="flowPara936"><flowSpan
   style="line-height:22.29000032%"
   id="flowSpan934">uvedení ve třídě. Zdarma</flowSpan>.</flowPara><flowPara
           style="font-style:normal;font-variant:normal;font-weight:normal;font-stretch:normal;font-size:13.33333397px;line-height:20.0000003%;font-family:'Open Sans';-inkscape-font-specification:'Open Sans';text-align:center;text-anchor:middle;fill:#040404;fill-opacity:1;stroke:none"
           id="flowPara938" /></flowRoot>      <flowRoot
         xml:space="preserve"
         id="flowRoot939"
         style="font-style:normal;font-variant:normal;font-weight:normal;font-stretch:normal;font-size:26.66666603px;line-height:100%;font-family:'Open Sans';-inkscape-font-specification:'Open Sans';text-align:start;letter-spacing:0px;word-spacing:0px;text-anchor:start;fill:#040404;fill-opacity:1;stroke:none;stroke-width:1px;stroke-linecap:butt;stroke-linejoin:miter;stroke-opacity:1"
         transform="matrix(0.26458333,0,0,0.26458333,14.7993,200.67604)"><flowRegion
           id="flowRegion927"
           style="font-style:normal;font-variant:normal;font-weight:normal;font-stretch:normal;font-family:'Open Sans';-inkscape-font-specification:'Open Sans';fill:#040404;fill-opacity:1;stroke:none"><rect
             id="rect925"
             width="345.32758"
             height="398.29532"
             x="-28.531727"
             y="70.134865"
             style="font-style:normal;font-variant:normal;font-weight:normal;font-stretch:normal;font-family:'Open Sans';-inkscape-font-specification:'Open Sans';fill:#040404;fill-opacity:1;stroke:none" /></flowRegion><flowPara
           style="font-style:normal;font-variant:normal;font-weight:normal;font-stretch:normal;font-size:13.33333397px;line-height:0%;font-family:'Open Sans';-inkscape-font-specification:'Open Sans';text-align:center;text-anchor:middle;fill:#040404;fill-opacity:1;stroke:none"
           id="flowPara937">Přesně proto jsme vytvořili Stack: otevřenou sbírku</flowPara></flowRoot>    </g>
    <text
       xml:space="preserve"
       style="font-style:normal;font-variant:normal;font-weight:bold;font-stretch:normal;font-size:3.52777767px;line-height:100%;font-family:muni;-inkscape-font-specification:'muni Bold';text-align:start;letter-spacing:0px;word-spacing:0px;text-anchor:start;fill:none;stroke:#000000;stroke-width:0.26458332px;stroke-linecap:butt;stroke-linejoin:miter;stroke-opacity:1"
       x="52.531868"
       y="190.96953"
       id="text1081"><tspan
         sodipodi:role="line"
         id="tspan1079"
         x="52.531868"
         y="190.96953"
         style="font-style:normal;font-variant:normal;font-weight:normal;font-stretch:normal;font-size:3.52777767px;line-height:150.39999485%;font-family:'Open Sans';-inkscape-font-specification:'Open Sans';text-align:center;text-anchor:middle;fill:#040404;fill-opacity:1;stroke:none;stroke-width:0.26458332px">Učit informatiku skrze abstraktní přednášky?</tspan><tspan
         sodipodi:role="line"
         x="52.990067"
         y="196.2753"
         style="font-style:normal;font-variant:normal;font-weight:bold;font-stretch:normal;font-size:3.52777767px;line-height:150.39999485%;font-family:'Open Sans';-inkscape-font-specification:'Open Sans Bold';text-align:center;text-anchor:middle;fill:#040404;fill-opacity:1;stroke:none;stroke-width:0.26458332px"
         id="tspan1083">Nuda! </tspan><tspan
         sodipodi:role="line"
         x="52.531868"
         y="201.58109"
         style="font-style:normal;font-variant:normal;font-weight:normal;font-stretch:normal;font-size:3.52777767px;line-height:150.39999485%;font-family:'Open Sans';-inkscape-font-specification:'Open Sans';text-align:center;text-anchor:middle;fill:#040404;fill-opacity:1;stroke:none;stroke-width:0.26458332px"
         id="tspan1085">Upřednostňujeme aktivní výukové metody.</tspan></text>
  </g>
</svg>
